<svg width="107" height="127" viewBox="0 0 107 127" fill="none" xmlns="http://www.w3.org/2000/svg">
<path d="M94.9853 100.397C97.7345 98.3552 101.819 98.3453 104.578 100.373C105.742 101.229 106.707 102.504 106.757 103.948C106.807 105.391 105.656 106.899 104.212 106.858C103.178 106.829 102.302 106.069 101.709 105.221C101.115 104.374 100.707 103.401 100.057 102.596C98.8631 101.118 96.8562 100.341 94.9781 100.632" fill="#FFEA7C"/>
<path d="M26.8017 109.008C25.7407 110.917 25.4222 113.148 25.9049 115.277C26.3098 117.063 27.0688 119.309 28.4893 121.286C31.4068 125.345 38.6372 127.121 43.5843 126.867C48.5314 126.613 58.9805 126.891 70.0958 120.778C78.4823 116.166 84.0493 110.668 81.8929 101.769C79.7365 92.8713 69.3305 90.2073 49.4172 94.1398C35.3674 96.9144 29.2097 104.678 26.8017 109.008Z" fill="#E49D67"/>
<path opacity="0.2" d="M81.8537 101.801C81.6384 100.914 81.3373 100.091 80.9563 99.3271C81.3764 101.845 79.7493 104.424 77.6357 106.395C74.1209 109.673 69.9157 112.801 65.6938 115.097C61.4715 117.392 56.8907 118.958 52.2585 120.238C47.4103 121.577 41.9371 121.426 36.9688 120.643C32.0853 119.874 27.6765 118.175 25.7255 113.694C25.7473 114.229 25.8173 114.763 25.9372 115.292C26.3415 117.075 27.0996 119.319 28.5183 121.293C31.4322 125.347 38.6533 127.12 43.5942 126.867C48.535 126.614 58.9709 126.891 70.0721 120.786C78.4476 116.18 84.0075 110.688 81.8537 101.801Z" fill="black"/>
<path d="M79.4213 96.9838C79.4213 96.9838 79.4679 97.0226 79.5543 97.1043C79.6443 97.191 79.7705 97.313 79.935 97.4718C80.2188 97.8322 80.6614 98.3935 80.8534 99.2694C81.0454 100.132 80.9835 101.266 80.5095 102.434C80.0543 103.608 79.2553 104.827 78.1575 105.965C77.0346 107.078 75.7301 108.209 74.292 109.38C72.8491 110.545 71.2576 111.729 69.5165 112.877C67.7766 114.025 65.8843 115.137 63.8403 116.125C61.7972 117.115 59.6109 117.988 57.333 118.762C56.1936 119.15 55.0584 119.504 53.9343 119.834C52.8102 120.159 51.7004 120.489 50.5829 120.706C48.3526 121.149 46.1555 121.315 44.0699 121.301C41.9829 121.295 40.0035 121.123 38.1658 120.876C36.3291 120.629 34.6233 120.304 33.1179 119.823C31.6149 119.341 30.3009 118.739 29.2683 118.021C28.2297 117.312 27.462 116.531 26.9228 115.832C26.3977 115.121 26.0631 114.519 25.8687 114.098C25.7766 113.889 25.7057 113.729 25.6555 113.615C25.6082 113.506 25.5879 113.448 25.5879 113.448C25.5879 113.448 25.6184 113.501 25.6701 113.608C25.7237 113.721 25.799 113.879 25.8971 114.084C26.0999 114.5 26.442 115.094 26.9707 115.795C27.5141 116.484 28.282 117.252 29.317 117.949C30.346 118.655 31.6541 119.246 33.1508 119.718C34.6502 120.19 36.3491 120.507 38.1829 120.748C40.0166 120.99 41.9907 121.156 44.0702 121.158C46.1486 121.168 48.3353 121 50.5527 120.557C51.6619 120.341 52.7665 120.011 53.891 119.686C55.0133 119.356 56.1464 119.002 57.2831 118.615C59.5558 117.843 61.7368 116.973 63.7742 115.988C65.8122 115.005 67.7004 113.9 69.4382 112.757C71.1771 111.616 72.768 110.438 74.2115 109.28C75.6488 108.117 76.9592 106.989 78.0791 105.889C79.1728 104.765 79.9712 103.561 80.4288 102.403C80.9054 101.25 80.9745 100.136 80.7948 99.2831C80.6154 98.4183 80.1862 97.8579 79.912 97.493C79.7532 97.3307 79.6312 97.2057 79.5445 97.1165C79.461 97.0307 79.4213 96.9838 79.4213 96.9838Z" fill="#263238"/>
<path d="M29.599 117.091C29.596 117.096 29.5595 117.076 29.4931 117.034C29.4279 116.99 29.3272 116.931 29.2087 116.839C28.9674 116.661 28.6337 116.38 28.2733 115.98C27.9139 115.582 27.5311 115.059 27.224 114.414C26.9118 113.774 26.6842 113.009 26.6202 112.186C26.564 111.362 26.6812 110.571 26.9001 109.893C27.116 109.212 27.4222 108.641 27.7279 108.199C28.0332 107.756 28.3281 107.434 28.5455 107.228C28.651 107.122 28.744 107.051 28.8032 106.999C28.8639 106.949 28.8974 106.924 28.901 106.928C28.9276 106.953 28.4001 107.371 27.8194 108.26C27.2404 109.132 26.6591 110.557 26.7751 112.175C26.8956 113.792 27.6684 115.119 28.3559 115.908C29.0485 116.713 29.622 117.064 29.599 117.091Z" fill="white"/>
<path d="M32.7707 118.639C32.7564 118.679 32.3305 118.566 31.8198 118.386C31.3087 118.205 30.9062 118.026 30.9205 117.986C30.9349 117.945 31.3604 118.058 31.8715 118.239C32.3823 118.419 32.7848 118.598 32.7707 118.639Z" fill="white"/>
<path d="M7.38371 59.0099C5.82059 58.5966 1.2622 57.9438 0.37822 60.1576C-0.0440355 61.2148 -0.354447 62.2013 0.826194 63.2904C2.36778 64.7124 5.9734 66.036 7.03203 66.3814C8.2653 66.7839 10.8126 67.4843 12.3033 66.8623C13.1622 66.5037 13.6984 65.3865 13.6784 64.5207C13.6281 62.3819 10.7997 59.913 7.38371 59.0099Z" fill="#AD3030"/>
<path d="M7.39709 59.1415C6.66203 58.9436 1.18886 57.6882 0.501348 60.4514C-0.10213 62.8769 5.31542 64.5809 7.25923 65.2155C9.20304 65.8501 13.0625 66.6722 13.4797 64.6691C13.9343 62.4852 10.3149 59.9277 7.39709 59.1415Z" fill="#F75757"/>
<path d="M6.29057 62.2974C6.29146 62.292 6.33692 62.347 6.30373 62.4466C6.2804 62.5548 6.12669 62.6338 5.95743 62.6505C5.61771 62.7076 5.10454 62.6747 4.65179 62.3625C4.62547 62.338 4.59796 62.3045 4.59437 62.2591C4.58988 62.2148 4.6165 62.1709 4.6482 62.1493C4.71219 62.1048 4.77978 62.1003 4.83869 62.0862C4.9601 62.0611 5.07823 62.0387 5.19246 62.024C5.42064 61.9923 5.63147 62.0031 5.80222 62.0372C5.97417 62.0698 6.10516 62.1332 6.18411 62.1909C6.26216 62.2495 6.29057 62.2974 6.29057 62.2974C6.28608 62.3009 6.25019 62.2621 6.16975 62.2112C6.08931 62.1613 5.96161 62.1069 5.79385 62.0805C5.62608 62.053 5.42243 62.0467 5.19964 62.0811C5.0881 62.097 4.97177 62.1203 4.85095 62.146C4.79054 62.1595 4.72685 62.1682 4.68498 62.199C4.64281 62.2283 4.6479 62.2776 4.69365 62.3165C5.11531 62.606 5.621 62.6541 5.95085 62.6069C6.12071 62.5931 6.25199 62.5321 6.281 62.4379C6.31808 62.3503 6.28518 62.2982 6.29057 62.2974Z" fill="#AD3030"/>
<path d="M7.11925 62.6939C7.11118 62.6909 7.17966 62.6598 7.23738 62.7381C7.28612 62.8207 7.26609 62.9436 7.26489 63.0904C7.25532 63.2351 7.22302 63.4313 7.06722 63.5749C6.90842 63.728 6.633 63.7029 6.44251 63.5734C6.23766 63.4529 6.14854 63.1613 6.2885 62.9851C6.3519 62.8999 6.43772 62.8506 6.51428 62.8093C6.59203 62.7692 6.6635 62.7327 6.73348 62.7043C6.87224 62.6454 7.00203 62.6397 7.08396 62.6622C7.1668 62.6837 7.20149 62.7196 7.1994 62.7214C7.20299 62.7301 7.02116 62.6122 6.75083 62.745C6.62672 62.812 6.44729 62.8772 6.33545 63.0189C6.22271 63.1658 6.29388 63.4122 6.4775 63.5219C6.65363 63.6401 6.89407 63.6613 7.02954 63.5324C7.16889 63.4086 7.20717 63.2283 7.22123 63.0871C7.229 62.9439 7.25203 62.8174 7.21704 62.7513C7.17547 62.6819 7.11656 62.6978 7.11925 62.6939Z" fill="#AD3030"/>
<path d="M8.8968 63.4695C8.8968 63.4695 8.93328 63.5063 8.94494 63.5945C8.95062 63.6379 8.95003 63.6929 8.93119 63.7536C8.91205 63.8113 8.87227 63.8864 8.78585 63.9124C8.62018 63.9318 8.43925 63.8681 8.26192 63.7736C8.08458 63.6848 7.87495 63.5616 7.7655 63.3382C7.71496 63.2308 7.68595 63.096 7.75443 62.9841C7.83129 62.8687 7.97573 62.8741 8.07083 62.8947C8.27238 62.9405 8.43866 63.0227 8.56725 63.1079C8.8316 63.2733 8.91175 63.4674 8.8968 63.4695C8.89201 63.4719 8.87407 63.4273 8.81934 63.3645C8.76492 63.3017 8.67072 63.2234 8.54332 63.1444C8.41623 63.0667 8.25115 62.9907 8.05976 62.9506C7.96825 62.9324 7.85551 62.936 7.80557 63.017C7.75563 63.0969 7.77447 63.2141 7.82142 63.311C7.91921 63.5123 8.11359 63.6322 8.28764 63.7222C8.45959 63.82 8.63632 63.8789 8.77448 63.8693C8.90547 63.8248 8.92371 63.6681 8.92042 63.596C8.91743 63.5137 8.89022 63.4716 8.8968 63.4695Z" fill="#AD3030"/>
<path d="M5.67578 61.6029C5.668 61.5999 5.74097 61.64 5.70419 61.7444C5.65126 61.8398 5.48798 61.8727 5.32499 61.8326C5.16171 61.7958 4.96853 61.751 4.7595 61.6747C4.55435 61.5925 4.32139 61.4971 4.15063 61.28C4.11086 61.2228 4.10548 61.123 4.16708 61.0694C4.22599 61.0168 4.29747 61.0123 4.35937 61.0111C4.48347 61.0171 4.59711 61.0326 4.70686 61.0548C4.92577 61.0981 5.11357 61.1759 5.2598 61.2587C5.40574 61.3431 5.5107 61.4307 5.57829 61.4953C5.64677 61.5593 5.67847 61.6011 5.67578 61.6029C5.66651 61.6128 5.52924 61.4546 5.23887 61.297C5.09353 61.221 4.90962 61.1502 4.6958 61.1107C4.58993 61.0907 4.4742 61.0763 4.35937 61.0718C4.30434 61.0721 4.24424 61.0814 4.20984 61.1143C4.17486 61.1469 4.17426 61.2007 4.20446 61.2486C4.3489 61.4334 4.58366 61.5425 4.77983 61.6209C4.98288 61.6983 5.17517 61.7477 5.33456 61.7895C5.48977 61.8341 5.63511 61.8057 5.68295 61.7324C5.72063 61.6547 5.66411 61.6035 5.67578 61.6029Z" fill="#AD3030"/>
<path d="M6.47336 61.2767C6.47336 61.2767 6.50207 61.3246 6.47965 61.4167C6.46798 61.4607 6.43449 61.5175 6.3702 61.5453C6.30769 61.5743 6.22546 61.5731 6.1471 61.5486C5.99429 61.4932 5.81995 61.4236 5.63514 61.3144C5.45481 61.2053 5.26462 61.0378 5.18268 60.7944C5.17729 60.7755 5.17191 60.757 5.16683 60.7396L5.16653 60.7382L5.16623 60.7355C5.16473 60.7217 5.16354 60.7091 5.16234 60.6969L5.16174 60.6921L5.16264 60.6879C5.19165 60.5501 5.3304 60.478 5.44673 60.4828C5.56665 60.4855 5.66713 60.5384 5.75356 60.5886C5.92431 60.693 6.07533 60.7902 6.19166 60.888C6.30799 60.9852 6.38933 61.0785 6.4321 61.1526C6.47486 61.2271 6.47636 61.2767 6.47336 61.2767C6.46828 61.2782 6.45901 61.2322 6.41236 61.1652C6.36571 61.0985 6.28168 61.0118 6.16475 60.9215C6.04812 60.8309 5.8956 60.7379 5.72515 60.6377C5.64082 60.5898 5.54632 60.5441 5.44644 60.5435C5.34924 60.5396 5.24308 60.6027 5.22395 60.6999L5.22424 60.6909C5.22544 60.7032 5.22694 60.7157 5.22843 60.7295L5.22783 60.7256C5.23232 60.7414 5.2374 60.7582 5.24249 60.7755C5.31695 60.9977 5.49339 61.1583 5.66594 61.2663C5.84088 61.3736 6.01762 61.4499 6.16086 61.5073C6.30739 61.5662 6.43688 61.4956 6.45692 61.4098C6.48413 61.3282 6.46679 61.2767 6.47336 61.2767Z" fill="#AD3030"/>
<path d="M8.10039 61.2365C8.10039 61.2365 8.1315 61.2775 8.14047 61.3669C8.15034 61.4503 8.12821 61.6064 7.98257 61.6973C7.83962 61.7865 7.64734 61.7957 7.44159 61.808C7.33782 61.8095 7.2188 61.796 7.11742 61.7276C7.01784 61.6603 6.94517 61.5505 6.91886 61.4273C6.85396 61.1351 7.07795 60.8815 7.29895 60.8184C7.52891 60.75 7.74034 60.8265 7.86684 60.9168L7.86534 60.9159C7.97808 60.9847 8.03281 61.0765 8.06421 61.1363C8.09531 61.1988 8.10338 61.2353 8.10039 61.2365C8.08783 61.2482 8.05404 61.0795 7.8462 60.9509L7.84471 60.95C7.7221 60.8702 7.52233 60.8062 7.31629 60.8723C7.11772 60.9327 6.92185 61.1627 6.97986 61.4145C7.00259 61.5227 7.06659 61.6193 7.15152 61.6773C7.23674 61.7359 7.34231 61.7509 7.44129 61.7509C7.64076 61.7428 7.83245 61.7353 7.95924 61.6603C8.09023 61.5855 8.11774 61.4488 8.11624 61.3681C8.11505 61.2835 8.09471 61.2383 8.10039 61.2365Z" fill="#AD3030"/>
<path d="M9.56908 62.3348C9.57177 62.333 9.57387 62.3937 9.50209 62.458C9.43361 62.5259 9.28528 62.5519 9.12828 62.5166C8.94975 62.482 8.76703 62.4467 8.57804 62.4102C8.47576 62.3875 8.36362 62.3758 8.25207 62.3226C8.14442 62.275 8.03317 62.1416 8.08969 61.9963C8.12917 61.9084 8.2126 61.8668 8.28497 61.8393C8.35913 61.8127 8.43419 61.7953 8.50806 61.7861C8.65609 61.7672 8.79873 61.7795 8.92553 61.8061C9.04993 61.8306 9.16955 61.8581 9.26555 61.9099C9.36184 61.9601 9.43242 62.0253 9.48565 62.0818L9.46322 62.1061L9.46292 62.1058L9.48475 62.0809C9.62141 62.2152 9.57297 62.345 9.56908 62.3348C9.5616 62.3393 9.5942 62.2209 9.46202 62.1049L9.48385 62.08L9.48415 62.0803L9.46172 62.1046C9.407 62.0528 9.33702 61.9939 9.24521 61.95C9.1537 61.9048 9.04066 61.8815 8.91476 61.8593C8.79156 61.836 8.65579 61.8267 8.51553 61.8459C8.38425 61.8689 8.20811 61.9009 8.14681 62.0205C8.10703 62.1171 8.18449 62.226 8.27899 62.2678C8.37528 62.3154 8.48683 62.33 8.5894 62.3537C8.7772 62.3946 8.95902 62.4344 9.13636 62.4733C9.28977 62.5122 9.41866 62.4948 9.48684 62.4389C9.55652 62.3869 9.5637 62.3321 9.56908 62.3348Z" fill="#AD3030"/>
<path d="M9.79247 63.0457C9.79516 63.0439 9.82805 63.0852 9.89474 63.1563C9.92106 63.1946 9.98087 63.2359 9.9704 63.3247C9.9399 63.4093 9.83643 63.4321 9.75 63.4228C9.40251 63.3669 8.93809 63.2203 8.47636 62.9509C8.41954 62.9174 8.35584 62.8776 8.32085 62.8088C8.28407 62.7454 8.29274 62.6453 8.35973 62.5989C8.494 62.5167 8.62349 62.5732 8.73294 62.5828C8.95962 62.6186 9.16477 62.6635 9.32775 62.7299C9.49133 62.7954 9.60975 62.877 9.68481 62.9395C9.76017 63.0014 9.79247 63.0457 9.79247 63.0457C9.7829 63.0579 9.63487 62.8914 9.3119 62.7712C9.15131 62.712 8.95005 62.6725 8.72397 62.6399C8.61392 62.627 8.48324 62.5884 8.39681 62.6477C8.35734 62.6761 8.35046 62.7326 8.37648 62.7813C8.4004 62.8298 8.45243 62.8651 8.50806 62.8974C8.96052 63.1623 9.42165 63.3142 9.75449 63.3791C9.83493 63.3917 9.91657 63.3681 9.93721 63.3151C9.94947 63.2625 9.90102 63.2084 9.8762 63.1719C9.8155 63.0962 9.78798 63.0484 9.79247 63.0457Z" fill="#AD3030"/>
<path d="M2.67462 59.2493C2.67253 59.2939 2.47904 59.3166 2.25924 59.3908C2.03825 59.462 1.86958 59.5586 1.84117 59.5242C1.81276 59.494 1.9578 59.3253 2.2105 59.2428C2.46259 59.159 2.6794 59.2081 2.67462 59.2493Z" fill="white"/>
<path d="M1.69524 61.855C1.68747 61.8705 1.56277 61.8313 1.40995 61.6911C1.25714 61.5532 1.09535 61.3014 1.03614 60.9889C0.978128 60.6761 1.03764 60.3825 1.13004 60.1988C1.22185 60.0128 1.32383 59.9312 1.33669 59.9429C1.35672 59.9581 1.29034 60.061 1.23232 60.2398C1.17311 60.418 1.13782 60.6791 1.18926 60.9602C1.24279 61.2407 1.37048 61.4713 1.4904 61.616C1.60912 61.7617 1.7087 61.8331 1.69524 61.855Z" fill="white"/>
<path d="M79.2894 33.177C77.193 34.5051 71.7022 38.954 73.2713 42.2588C74.0207 43.8369 74.8069 45.2158 77.2645 45.0235C80.4733 44.7723 85.7252 42.0952 87.2183 41.2648C88.9582 40.297 92.4044 38.1606 93.2597 35.8341C93.7525 34.4934 93.0545 32.7243 92.059 31.8436C89.5999 29.668 83.8702 30.2751 79.2894 33.177Z" fill="#AD3030"/>
<path d="M79.4518 33.2996C78.4619 33.9202 71.3383 38.7701 73.731 42.4269C75.8312 45.6369 83.4016 41.3177 86.1442 39.7923C88.8867 38.2668 93.8393 34.7808 92.0199 32.2216C90.036 29.4312 83.3813 30.8361 79.4518 33.2996Z" fill="#F75757"/>
<path d="M81.8489 37.8373C81.8438 37.8331 81.9503 37.8412 82.0248 37.9809C82.0615 38.0467 82.0828 38.1468 82.0532 38.2524C82.0269 38.3586 81.9638 38.465 81.889 38.5742C81.5986 39.0123 81.0247 39.5515 80.2107 39.7333C80.1578 39.7375 80.0956 39.733 80.046 39.6935C79.9963 39.6558 79.9766 39.5883 79.9847 39.5332C79.9999 39.4214 80.0639 39.3409 80.11 39.2596C80.2083 39.0969 80.3055 38.9405 80.4075 38.7973C80.6085 38.5081 80.8381 38.2826 81.0529 38.1253C81.267 37.9653 81.4727 37.8831 81.6187 37.8532C81.7655 37.8242 81.8489 37.8373 81.8489 37.8373C81.8486 37.8439 81.7667 37.8412 81.6246 37.8771C81.4835 37.9136 81.2864 37.9997 81.0798 38.1609C80.8719 38.3203 80.6503 38.5437 80.4548 38.8308C80.3555 38.9731 80.2598 39.1286 80.1626 39.2916C80.1153 39.3735 80.0567 39.454 80.0469 39.5401C80.0322 39.6283 80.1115 39.6857 80.2063 39.6714C80.9823 39.497 81.5624 38.9737 81.8531 38.5494C81.9294 38.4429 81.9925 38.3418 82.02 38.2437C82.0505 38.1456 82.0346 38.0565 82.0035 37.9919C81.9398 37.8574 81.8441 37.8418 81.8489 37.8373Z" fill="#AD3030"/>
<path d="M83.1587 37.3176C83.1494 37.3239 83.1868 37.2192 83.3303 37.2372C83.3979 37.2479 83.4655 37.2991 83.5298 37.3613C83.5953 37.4226 83.6704 37.4923 83.7481 37.5757C83.8994 37.7378 84.0821 37.977 84.0803 38.2955C84.0809 38.4519 84.0101 38.6161 83.8887 38.7339C83.7687 38.8535 83.6108 38.9379 83.4383 38.9809C83.266 39.0234 83.0788 39.0126 82.9269 38.9316C82.7753 38.8544 82.6611 38.7106 82.6342 38.5536C82.6048 38.3978 82.6371 38.2512 82.67 38.1227C82.705 37.9938 82.7382 37.8748 82.7783 37.7671C82.8548 37.5506 82.9807 37.3996 83.0893 37.3302C83.1979 37.2584 83.2726 37.2566 83.2726 37.2566C83.275 37.2629 83.2032 37.2752 83.1034 37.3499C83.0032 37.4232 82.8892 37.5694 82.8199 37.782C82.7837 37.8873 82.7529 38.0075 82.7203 38.1352C82.6898 38.2623 82.6626 38.4026 82.6907 38.5425C82.7161 38.6822 82.8169 38.8075 82.955 38.8775C83.0923 38.9498 83.2625 38.96 83.4236 38.9202C83.7451 38.8443 84.0268 38.5901 84.0229 38.294C84.0283 38.0012 83.8608 37.7683 83.7152 37.6053C83.5603 37.4474 83.4419 37.291 83.3253 37.2611C83.2002 37.2372 83.1584 37.3245 83.1587 37.3176Z" fill="#AD3030"/>
<path d="M85.8873 36.1279C85.8873 36.1279 85.9653 36.1297 86.0739 36.2092C86.1274 36.2484 86.1872 36.3067 86.2345 36.3901C86.2784 36.4709 86.3185 36.5914 86.2596 36.7095C86.1116 36.909 85.8529 37.0462 85.5619 37.1455C85.2772 37.2514 84.9232 37.3563 84.564 37.2481C84.3932 37.1943 84.2165 37.0872 84.1648 36.903C84.1166 36.7077 84.2661 36.5555 84.3873 36.47C84.6459 36.292 84.9109 36.1895 85.1388 36.1329C85.3669 36.0773 85.5589 36.0612 85.6905 36.0752C85.8227 36.089 85.8873 36.1279 85.8873 36.1279C85.8858 36.1335 85.8176 36.1051 85.689 36.0992C85.5607 36.0926 85.3729 36.1153 85.1501 36.1754C84.9282 36.2361 84.6693 36.342 84.4214 36.5163C84.3041 36.6007 84.1833 36.7358 84.224 36.888C84.265 37.0373 84.4217 37.1395 84.5825 37.1889C84.9175 37.2906 85.2587 37.1943 85.5422 37.0917C85.832 36.9987 86.0847 36.8611 86.221 36.6886C86.2725 36.5941 86.2432 36.4837 86.204 36.4066C86.1627 36.327 86.1086 36.2687 86.0595 36.2286C85.96 36.1464 85.8837 36.135 85.8873 36.1279Z" fill="#AD3030"/>
<path d="M80.4258 37.8052C80.4258 37.8052 80.4461 37.8028 80.4832 37.813C80.5179 37.8225 80.5816 37.847 80.6082 37.9227C80.657 38.077 80.526 38.2905 80.3113 38.4296C80.0992 38.5731 79.8465 38.7433 79.5433 38.8973C79.3917 38.9736 79.2272 39.0453 79.0487 39.0977C78.8696 39.1434 78.6826 39.2026 78.4742 39.1682C78.3722 39.1533 78.2643 39.0624 78.2673 38.946C78.2691 38.8333 78.3355 38.7493 78.3977 38.6799C78.5319 38.548 78.6683 38.4359 78.8065 38.3357C79.0819 38.135 79.3636 38.0043 79.6076 37.9248C80.1019 37.7726 80.4258 37.8052 80.4258 37.8052C80.4276 37.8213 80.1049 37.8064 79.622 37.9664C79.3833 38.0498 79.1094 38.1823 78.8405 38.3817C78.7066 38.4804 78.5696 38.5953 78.4425 38.7212C78.3842 38.7852 78.3289 38.8638 78.3295 38.9451C78.3292 39.0277 78.3992 39.0917 78.488 39.1075C78.6668 39.1386 78.8597 39.0836 79.0316 39.0393C79.206 38.9891 79.3678 38.92 79.5179 38.8462C79.8178 38.6972 80.0732 38.531 80.2864 38.3934C80.4991 38.263 80.6211 38.0653 80.5852 37.9302C80.5664 37.865 80.5116 37.8381 80.4793 37.8252C80.4452 37.8112 80.4255 37.8082 80.4258 37.8052Z" fill="#AD3030"/>
<path d="M80.8902 36.5662C80.8902 36.5662 80.9715 36.588 81.0484 36.7083C81.0842 36.7669 81.1112 36.8611 81.0759 36.9592C81.0433 37.0569 80.9583 37.1455 80.8498 37.2068C80.6294 37.3189 80.3674 37.4412 80.054 37.5339C79.7448 37.6219 79.3614 37.6595 79.0077 37.5004C78.9805 37.4888 78.955 37.4741 78.9308 37.4619L78.9293 37.461L78.9272 37.4595C78.9102 37.4466 78.8946 37.4349 78.8797 37.4239L78.8758 37.4209L78.8734 37.4173C78.7547 37.2501 78.8142 37.0264 78.9371 36.9044C79.0612 36.7758 79.223 36.7178 79.3689 36.673C79.6638 36.5889 79.9302 36.5193 80.1602 36.4891C80.3896 36.4583 80.5789 36.4624 80.706 36.4894C80.8342 36.5166 80.8902 36.5662 80.8902 36.5662C80.8878 36.5716 80.8271 36.5318 80.7021 36.5124C80.5777 36.4932 80.3917 36.4956 80.1668 36.5315C79.9416 36.5668 79.6772 36.6407 79.3857 36.7271C79.243 36.7723 79.0905 36.8309 78.9813 36.946C78.8719 37.0549 78.8279 37.248 78.9233 37.3805L78.9171 37.3742C78.9323 37.3856 78.9479 37.3973 78.9646 37.4098L78.9613 37.4077C78.984 37.4194 79.008 37.4331 79.0337 37.4439C79.3668 37.594 79.7359 37.562 80.0388 37.4789C80.3441 37.3922 80.6127 37.2723 80.828 37.1688C80.9323 37.1129 81.0107 37.0342 81.043 36.9478C81.0774 36.8617 81.0573 36.7776 81.0268 36.7205C80.9619 36.6036 80.8845 36.5719 80.8902 36.5662Z" fill="#AD3030"/>
<path d="M82.5434 34.694C82.5434 34.694 82.6202 34.706 82.7279 34.79C82.8299 34.8671 82.9779 35.0526 82.9279 35.3055C82.8792 35.5535 82.689 35.7792 82.4883 36.0215C82.3825 36.1387 82.2452 36.2556 82.0673 36.2969C81.892 36.3376 81.6968 36.3056 81.5347 36.2087C81.3475 36.1022 81.2279 35.9099 81.1884 35.7173C81.1471 35.5236 81.1755 35.3271 81.2515 35.1665C81.4103 34.8414 81.7129 34.6832 81.9435 34.6342L81.942 34.6345C82.1337 34.5789 82.2931 34.6109 82.3932 34.6363C82.4943 34.6641 82.5434 34.694 82.5434 34.694C82.5419 34.6985 82.4889 34.6781 82.3879 34.6569C82.2883 34.6381 82.1325 34.6144 81.9536 34.6722L81.9531 34.6725L81.9521 34.6728C81.7315 34.7263 81.4465 34.8842 81.302 35.1904C81.1594 35.4817 81.2135 35.9521 81.5664 36.1554C81.7153 36.2449 81.8953 36.2742 82.0535 36.238C82.2132 36.2018 82.3424 36.0956 82.4462 35.9832C82.6456 35.7484 82.8367 35.5242 82.8849 35.2975C82.9366 35.066 82.8071 34.8905 82.7126 34.8091C82.6133 34.7221 82.5401 34.7003 82.5434 34.694Z" fill="#AD3030"/>
<path d="M85.3117 34.1863C85.3117 34.1863 85.3269 34.1992 85.344 34.2321C85.3601 34.2649 85.3772 34.3188 85.3742 34.3897C85.3769 34.5353 85.2534 34.724 85.0494 34.8624C84.8368 35.0168 84.6038 35.1857 84.3532 35.3675C84.2207 35.4587 84.0898 35.5721 83.9175 35.6403C83.7551 35.7102 83.4997 35.6938 83.402 35.491C83.3469 35.3625 83.3849 35.2291 83.4292 35.1208C83.4758 35.0111 83.5338 34.9094 83.5999 34.8173C83.7318 34.6325 83.8924 34.4853 84.0536 34.3705C84.2109 34.2554 84.3646 34.1501 84.5207 34.0957C84.6759 34.0395 84.8212 34.0272 84.9399 34.0248L84.9426 34.0577H84.9417L84.9385 34.0248C85.076 34.0236 85.1828 34.0538 85.2399 34.1029C85.2982 34.148 85.3117 34.1863 85.3117 34.1863C85.312 34.198 85.2133 34.0329 84.9403 34.058L84.937 34.0251H84.9379L84.9406 34.058C84.8242 34.0646 84.6837 34.0807 84.5362 34.1379C84.3879 34.1935 84.242 34.2969 84.0853 34.4145C83.9292 34.5287 83.7752 34.6728 83.649 34.852C83.5856 34.9411 83.5302 35.0395 83.486 35.1444C83.4435 35.247 83.4148 35.3663 83.4585 35.4653C83.532 35.6226 83.7465 35.6471 83.896 35.5832C84.0536 35.5221 84.1864 35.4115 84.3197 35.3206C84.573 35.143 84.8087 34.9776 85.0234 34.8266C85.2273 34.6932 85.344 34.5242 85.3499 34.3873C85.3619 34.2527 85.3045 34.1884 85.3117 34.1863Z" fill="#AD3030"/>
<path d="M86.3446 34.6765C86.3446 34.6765 86.4262 34.6822 86.5754 34.6834C86.6451 34.6936 86.7545 34.6741 86.8362 34.7722C86.8954 34.8871 86.817 35.0231 86.7169 35.109C86.2922 35.4373 85.6424 35.8051 84.8598 36.0429C84.7632 36.0719 84.6549 36.1006 84.5473 36.0698C84.4423 36.0456 84.3466 35.9397 84.3631 35.8246C84.4064 35.6012 84.6017 35.5109 84.7276 35.3984C85.0036 35.1804 85.2665 34.9962 85.5093 34.8808C85.7518 34.7644 85.966 34.7148 86.1134 34.6936C86.2611 34.6714 86.3446 34.6765 86.3446 34.6765C86.3487 34.6957 86.0051 34.684 85.5287 34.9205C85.2928 35.039 85.0365 35.2238 84.7632 35.4436C84.6346 35.5545 84.4513 35.6577 84.4238 35.8306C84.413 35.9134 84.4776 35.9882 84.5643 36.0103C84.6498 36.0351 84.7467 36.0124 84.8418 35.9834C85.6146 35.7495 86.2662 35.3877 86.6876 35.0764C86.7859 34.9971 86.8487 34.8766 86.8063 34.7905C86.7521 34.7154 86.6412 34.7181 86.5736 34.7079C86.4253 34.6993 86.3434 34.6825 86.3446 34.6765Z" fill="#AD3030"/>
<path d="M74.6452 38.7267C74.6775 38.7587 74.4831 38.9914 74.3333 39.3245C74.1793 39.6555 74.1302 39.9549 74.0851 39.9513C74.0444 39.9522 74.0247 39.6215 74.1918 39.2596C74.356 38.8969 74.6192 38.6953 74.6452 38.7267Z" fill="white"/>
<path d="M76.5557 42.5478C76.5617 42.5619 76.3859 42.6504 76.0737 42.6686C75.7639 42.6893 75.3222 42.6055 74.9158 42.3507C74.5105 42.0942 74.2441 41.7317 74.129 41.4434C74.0105 41.154 74.0147 40.9572 74.0297 40.9563C74.0569 40.9512 74.0922 41.1363 74.2285 41.3962C74.3622 41.6561 74.6212 41.9793 74.9989 42.2189C75.3778 42.456 75.7809 42.5502 76.0734 42.5586C76.3664 42.5693 76.5489 42.5212 76.5557 42.5478Z" fill="white"/>
<path d="M41.4452 63.2322C46.366 65.2535 49.1959 64.8512 53.1532 65.8584C57.714 67.019 62.7069 66.0719 67.0329 64.219C69.1092 63.3297 71.4092 62.0755 73.481 62.9753C73.9256 63.1685 74.3252 63.4529 74.7642 63.6583C75.304 63.911 75.8922 64.039 76.4726 64.1736C77.7017 64.4586 79.0235 64.8494 79.7559 65.877C80.4879 66.9045 80.1156 68.7245 78.8668 68.9039C79.4658 69.0526 79.6443 69.851 79.4733 70.444C79.3022 71.037 78.9102 71.5559 78.795 72.1623C78.6267 73.0514 79.0794 73.9279 79.5175 74.7198C81.5367 74.5867 83.4058 76.6092 83.1145 78.6116C83.0511 79.0467 82.9037 79.4723 82.9093 79.9119C82.9159 80.4158 83.1232 80.8948 83.1883 81.3946C83.3648 82.7492 82.3139 84.1461 80.9631 84.3518C81.0394 85.8827 80.0457 87.4081 78.6144 87.9569C79.2218 88.1165 79.6629 88.7559 79.5965 89.3803C79.5301 90.0047 78.9643 90.537 78.3369 90.5654C79.493 92.5293 78.1356 95.46 75.8904 95.8484C75.8865 97.535 74.6769 98.9466 73.5366 100.189C72.9744 100.802 72.3476 101.451 71.5264 101.581C70.1822 101.793 69.0183 100.539 67.6612 100.439C67.07 100.396 66.4823 100.577 65.8899 100.562C65.2972 100.547 64.6288 100.233 64.5287 99.6487C64.3779 100.371 63.5155 100.753 62.7867 100.64C62.0579 100.526 61.4419 100.058 60.8599 99.6045C62.0825 101.403 61.6647 104.117 59.958 105.465C58.2514 106.812 55.5139 106.589 54.0485 104.982C53.8488 105.701 53.0088 106.084 52.2653 106.019C51.5219 105.953 50.8556 105.553 50.2195 105.163C49.8266 106.129 49.2748 107.23 48.247 107.41C47.9252 107.466 47.5807 107.423 47.2832 107.557C46.7811 107.784 46.6208 108.399 46.4115 108.908C45.9405 110.056 44.8839 110.981 43.656 111.155C42.4278 111.33 41.089 110.667 40.6031 109.526C40.4616 110.379 39.6635 111.075 38.7989 111.1C37.9344 111.124 37.0982 110.475 36.908 109.631C36.0507 110.331 34.745 109.814 33.9059 109.093C32.3508 107.756 31.3792 105.763 31.2832 103.715C31.0305 104.474 29.9755 104.69 29.2599 104.333C28.5443 103.975 28.1035 103.244 27.7234 102.541C27.6923 103.749 26.6701 104.854 25.4674 104.978C24.2691 105.102 23.1195 104.335 22.4431 103.339C21.7666 102.342 21.4709 101.143 21.1877 99.972C20.6987 97.951 20.2068 95.8679 20.5211 93.8125C20.7041 92.6157 21.1548 91.4787 21.6019 90.3537C22.2637 88.6886 22.9284 87.0175 23.8127 85.4595C25.8125 81.9352 28.8421 79.1358 31.5557 76.1265C34.2689 73.1169 37.9616 68.967 38.528 64.9547C38.7014 63.7271 38.4685 62.553 38.6009 62.3398C38.9137 61.8368 41.4452 63.2322 41.4452 63.2322Z" fill="#65AB44"/>
<path d="M38.6013 62.3389C38.6022 62.3365 38.628 62.343 38.6776 62.358C38.7356 62.3768 38.8074 62.4002 38.8965 62.4292C39.0882 62.4938 39.3708 62.5892 39.7314 62.7213C40.4542 62.9815 41.4928 63.3777 42.7668 63.8906C45.3197 64.902 48.7905 66.4391 52.7574 67.7806C54.7332 68.4696 56.6566 69.0109 58.4515 69.2564C60.2437 69.5109 61.8831 69.5322 63.2474 69.4254C64.614 69.3291 65.7046 69.1054 66.4508 68.935C66.8243 68.8488 67.1119 68.7723 67.3063 68.7175C67.3969 68.6942 67.4699 68.6754 67.5291 68.6601C67.5797 68.6482 67.6057 68.6431 67.6066 68.6458C67.6075 68.6485 67.5827 68.6583 67.5339 68.6754C67.4762 68.6945 67.4041 68.7181 67.3156 68.7478C67.1236 68.8123 66.838 68.8985 66.4654 68.9939C65.7214 69.1829 64.6293 69.4242 63.2563 69.5351C61.8861 69.6566 60.2363 69.6467 58.4315 69.3985C56.6238 69.1595 54.6853 68.6183 52.7065 67.9281C48.7328 66.5838 45.2647 65.0291 42.7252 63.9926C41.4575 63.4669 40.4258 63.0557 39.7102 62.7782C39.3612 62.643 39.0858 62.5362 38.886 62.4588C38.7993 62.4238 38.729 62.3957 38.6725 62.3729C38.6244 62.3529 38.6004 62.3413 38.6013 62.3389Z" fill="white"/>
<path d="M65.2288 71.5225C65.2285 71.5252 65.2043 71.5255 65.157 71.524C65.1005 71.521 65.032 71.5171 64.948 71.5126C64.7515 71.5007 64.4836 71.4842 64.1453 71.4636C63.448 71.4241 62.4381 71.3999 61.1884 71.3622C59.9413 71.3144 58.4428 71.2626 56.816 70.9199C55.179 70.596 53.5055 69.82 51.8096 68.9585C48.3891 67.2847 45.2937 65.7697 43.0383 64.6659C41.9285 64.1148 41.0263 63.6668 40.3878 63.3498C40.0858 63.1961 39.8462 63.0744 39.6707 62.985C39.5965 62.9455 39.5358 62.9132 39.4859 62.8866C39.4446 62.8636 39.4243 62.8507 39.4255 62.8483C39.4267 62.8459 39.4497 62.854 39.493 62.8722C39.5448 62.895 39.6076 62.9228 39.6847 62.9569C39.8636 63.0397 40.107 63.1527 40.415 63.2957C41.0586 63.6019 41.9686 64.0349 43.0876 64.5675C45.3481 65.6609 48.451 67.1612 51.8793 68.8191C53.5752 69.6807 55.2298 70.4516 56.8462 70.7794C58.4554 71.1263 59.9473 71.19 61.1925 71.2519C62.4402 71.3036 63.4519 71.3446 64.1489 71.4026C64.4976 71.431 64.768 71.457 64.9507 71.4809C65.0341 71.4917 65.1023 71.5007 65.1585 71.5078C65.2055 71.515 65.2291 71.5198 65.2288 71.5225Z" fill="white"/>
<path d="M69.6289 86.0147C69.6281 86.0171 69.5952 86.0081 69.5321 85.9875C69.4612 85.9636 69.3688 85.9322 69.2524 85.893C69.0078 85.806 68.643 85.6878 68.1863 85.5012C67.2671 85.1448 65.9504 84.5826 64.4043 83.7288C63.6298 83.3053 62.8017 82.8047 61.9359 82.2318C61.0762 81.6501 60.1769 80.9988 59.2741 80.258C57.47 78.7772 55.6515 76.9407 53.9879 74.824C53.1407 73.7798 52.3269 72.7489 51.4543 71.8342C50.5865 70.9155 49.6747 70.1006 48.7802 69.3577C46.9845 67.8778 45.2578 66.6819 43.7978 65.6983C42.3337 64.7189 41.1282 63.9572 40.2971 63.4273C39.8884 63.1663 39.5678 62.9617 39.3405 62.8167C39.2376 62.7491 39.156 62.6959 39.0935 62.6549C39.0385 62.6178 39.0106 62.5975 39.0121 62.5951C39.0136 62.5927 39.0438 62.6085 39.1019 62.6411C39.1665 62.6788 39.2505 62.7279 39.3569 62.7898C39.5878 62.9288 39.9135 63.1253 40.3291 63.3756C41.1701 63.8897 42.3851 64.6376 43.8585 65.6062C45.328 66.5793 47.064 67.7677 48.8711 69.2468C49.7713 69.9893 50.6894 70.8054 51.565 71.7295C52.4451 72.6494 53.2621 73.6823 54.1087 74.726C55.7696 76.839 57.5722 78.665 59.365 80.1471C60.2616 80.8878 61.1542 81.5403 62.0077 82.1244C62.8669 82.6998 63.6887 83.2043 64.4572 83.6325C65.991 84.4958 67.2979 85.0718 68.2082 85.445C68.6606 85.64 69.0216 85.7671 69.2623 85.8634C69.3765 85.9088 69.4672 85.9447 69.5368 85.9725C69.5987 85.998 69.6298 86.012 69.6289 86.0147Z" fill="white"/>
<path d="M56.6425 94.1429C56.6398 94.1435 56.6308 94.1118 56.6156 94.0493C56.5994 93.9784 56.5785 93.8866 56.5522 93.7712C56.4974 93.5161 56.4206 93.1566 56.3228 92.6988C56.1233 91.7675 55.8437 90.4182 55.4624 88.7591C55.077 87.1018 54.591 85.1326 53.9035 82.9914C53.568 81.9181 53.161 80.8101 52.7073 79.6749C52.2312 78.5496 51.7231 77.3878 51.0918 76.2553C50.9444 75.9664 50.7817 75.6886 50.6167 75.4141C50.4513 75.1402 50.2979 74.8615 50.1262 74.5968C49.7778 74.0708 49.4471 73.5436 49.0802 73.0549C48.3574 72.0699 47.5948 71.1676 46.8469 70.3285C45.3477 68.652 43.8989 67.2319 42.6674 66.0581C41.4329 64.8864 40.4081 63.9654 39.6987 63.3305C39.3494 63.0189 39.0752 62.7743 38.8805 62.6005C38.7929 62.5207 38.7232 62.4576 38.6694 62.4085C38.6225 62.3646 38.5991 62.3412 38.6009 62.3391C38.6027 62.337 38.6293 62.3565 38.6799 62.3966C38.7361 62.4426 38.8091 62.5018 38.9009 62.5769C39.0947 62.7363 39.3776 62.9743 39.7385 63.285C40.4607 63.9062 41.4972 64.8153 42.7427 65.9783C43.9856 67.1433 45.4443 68.5569 46.9536 70.2331C47.7066 71.0719 48.4743 71.9754 49.2031 72.9649C49.573 73.4562 49.9064 73.9856 50.2572 74.5143C50.4301 74.7801 50.5847 75.0603 50.7509 75.3358C50.9166 75.6115 51.0805 75.8908 51.2285 76.1812C51.8631 77.3193 52.3724 78.4868 52.8485 79.6172C53.3018 80.7578 53.7073 81.8705 54.0399 82.948C54.722 85.0976 55.1975 87.0728 55.5695 88.7349C55.9373 90.3985 56.2005 91.7517 56.3817 92.6868C56.4675 93.147 56.5348 93.5086 56.5824 93.7652C56.6024 93.8821 56.6183 93.9748 56.6305 94.0463C56.6413 94.1094 56.6452 94.1423 56.6425 94.1429Z" fill="white"/>
<path d="M41.4885 101.028C41.4859 101.028 41.4838 100.993 41.4823 100.927C41.4817 100.852 41.4808 100.753 41.4799 100.63C41.4823 100.369 41.4733 99.9831 41.4978 99.4879C41.5259 98.4965 41.6279 97.0632 41.8271 95.3015C42.0173 93.5389 42.3118 91.4483 42.5203 89.1172C42.6204 87.9518 42.6982 86.7254 42.7024 85.4536C42.7066 84.1814 42.6076 82.8674 42.444 81.528C42.1145 78.8473 41.5606 76.3284 41.043 74.0452C40.5148 71.7632 40.0118 69.7132 39.6285 67.9823C39.243 66.252 38.9706 64.8426 38.8133 63.8635C38.7286 63.3752 38.6844 62.9924 38.6464 62.734C38.6305 62.6114 38.6183 62.5139 38.6087 62.4395C38.6012 62.3731 38.5985 62.3387 38.6012 62.3384C38.6039 62.3381 38.6117 62.3716 38.6246 62.4371C38.638 62.5109 38.6554 62.6075 38.6775 62.7292C38.7253 62.9858 38.7792 63.3665 38.8731 63.8531C39.0486 64.8279 39.3369 66.232 39.7358 67.9578C40.1485 69.6842 40.6387 71.7357 41.1829 74.0126C41.7086 76.2958 42.2679 78.818 42.5989 81.5085C42.7631 82.8522 42.8615 84.1748 42.8552 85.4536C42.8489 86.7317 42.7679 87.9617 42.6632 89.1298C42.4464 91.4656 42.1405 93.5542 41.9365 95.3138C41.7236 97.0722 41.6052 98.501 41.5585 99.4903C41.5247 99.9846 41.5238 100.369 41.5113 100.63C41.5059 100.753 41.5017 100.851 41.4984 100.926C41.4942 100.993 41.4909 101.028 41.4885 101.028Z" fill="white"/>
<path d="M44.6878 95.4066C44.677 95.4066 44.6633 95.2433 44.6474 94.9481C44.6337 94.653 44.6059 94.2262 44.5631 93.7002C44.4797 92.6479 44.3026 91.1993 44.0105 89.6146C43.7168 88.03 43.3804 86.6089 43.1304 85.582C43.0104 85.0894 42.9106 84.68 42.834 84.3654C42.7652 84.0777 42.732 83.9172 42.7425 83.9145C42.753 83.9115 42.8059 84.0667 42.8926 84.3496C42.9799 84.6325 43.0984 85.044 43.2371 85.5545C43.5146 86.5757 43.869 87.9962 44.1636 89.5862C44.4566 91.1762 44.6175 92.6341 44.6728 93.6921C44.7016 94.2212 44.7129 94.65 44.7078 94.946C44.7051 95.243 44.6986 95.4066 44.6878 95.4066Z" fill="white"/>
<path d="M32.856 94.3603C32.8512 94.3579 32.8859 94.2738 32.9562 94.1162C33.0337 93.947 33.1386 93.7182 33.2705 93.4299C33.412 93.1345 33.5755 92.7684 33.7594 92.3411C33.9473 91.9152 34.1611 91.4308 34.3785 90.8868C34.8348 89.8082 35.3208 88.5004 35.8429 87.0429C36.348 85.579 36.8695 83.9585 37.3645 82.2413C37.8522 80.5215 38.267 78.8699 38.6172 77.3609C38.9518 75.8489 39.2389 74.4835 39.4387 73.3291C39.5478 72.7535 39.6321 72.2304 39.7063 71.7711C39.7841 71.3121 39.8466 70.9164 39.8917 70.5916C39.9396 70.2782 39.9778 70.0297 40.006 69.8455C40.0338 69.6751 40.0511 69.586 40.0562 69.5866C40.0616 69.5871 40.0547 69.6778 40.0371 69.8494C40.0161 70.0345 39.9877 70.2845 39.9518 70.5997C39.9159 70.9257 39.8621 71.3234 39.7924 71.784C39.7263 72.2451 39.6495 72.7702 39.5472 73.3477C39.3609 74.5059 39.0849 75.8758 38.7571 77.392C38.4144 78.9049 38.0029 80.5607 37.5143 82.2835C37.0185 84.0036 36.4918 85.6263 35.9784 87.0901C35.4479 88.5477 34.9503 89.8539 34.4802 90.929C34.2559 91.4712 34.0346 91.9535 33.839 92.3764C33.6473 92.801 33.4757 93.1638 33.3255 93.4556C33.1823 93.7385 33.0686 93.9634 32.9846 94.1297C32.9051 94.2834 32.8611 94.3626 32.856 94.3603Z" fill="white"/>
<path d="M23.7242 102.785C23.7167 102.792 23.5968 102.674 23.385 102.452C23.3333 102.395 23.2708 102.336 23.2122 102.264C23.1554 102.187 23.095 102.106 23.0307 102.02C22.9652 101.931 22.8958 101.837 22.8231 101.739C22.7564 101.635 22.693 101.52 22.6228 101.402C22.3324 100.934 22.0821 100.324 21.8599 99.6336C21.6485 98.9377 21.5082 98.1482 21.4376 97.3139C21.3085 95.6392 21.5441 94.1209 21.8318 93.0662C21.8943 92.7992 21.9798 92.5659 22.0483 92.3595C22.1135 92.152 22.1817 91.9777 22.2454 91.838C22.3656 91.5563 22.4365 91.4035 22.4463 91.4077C22.4562 91.4119 22.4042 91.5731 22.3019 91.8595C22.2475 92.0016 22.188 92.1777 22.1311 92.3865C22.071 92.594 21.9936 92.8273 21.9386 93.0937C21.6805 94.1461 21.4652 95.6485 21.5929 97.3022C21.6628 98.1258 21.7965 98.9051 21.9975 99.5929C22.2089 100.276 22.4442 100.88 22.7185 101.348C23.2445 102.298 23.7556 102.758 23.7242 102.785Z" fill="white"/>
<path d="M29.1119 103.408C29.0811 103.434 28.7357 103.056 28.4641 102.491C28.1896 101.928 28.1074 101.422 28.1471 101.414C28.1914 101.403 28.3379 101.878 28.6044 102.423C28.8669 102.971 29.148 103.38 29.1119 103.408Z" fill="white"/>
<path d="M34.4729 108.104C34.4672 108.113 34.3913 108.075 34.257 107.997C34.1212 107.921 33.9373 107.791 33.7244 107.613C33.5097 107.437 33.2773 107.198 33.0452 106.912C32.8195 106.622 32.5976 106.281 32.4122 105.898C32.2315 105.512 32.1062 105.125 32.0228 104.766C31.9468 104.406 31.9083 104.076 31.9065 103.798C31.9023 103.52 31.9169 103.295 31.9441 103.143C31.9681 102.99 31.9863 102.906 31.9971 102.908C32.0258 102.911 31.9803 103.25 32.0165 103.793C32.0321 104.064 32.0811 104.385 32.1625 104.734C32.2513 105.081 32.3769 105.456 32.5527 105.831C32.733 106.203 32.9448 106.537 33.1586 106.825C33.3784 107.108 33.5964 107.348 33.7973 107.531C34.1966 107.901 34.4884 108.079 34.4729 108.104Z" fill="white"/>
<path d="M42.7512 110.169C42.7443 110.209 42.1892 110.003 41.7957 109.425C41.3953 108.851 41.401 108.259 41.4401 108.266C41.4871 108.258 41.5496 108.803 41.924 109.336C42.2885 109.876 42.7754 110.128 42.7512 110.169Z" fill="white"/>
<path d="M52.0355 105.087C52.0265 105.101 51.8327 105.009 51.5725 104.782C51.3124 104.558 50.9996 104.185 50.7789 103.704C50.56 103.222 50.4825 102.741 50.4834 102.398C50.4831 102.053 50.5399 101.846 50.5567 101.849C50.5824 101.852 50.565 102.061 50.5931 102.393C50.6201 102.724 50.711 103.178 50.9203 103.639C51.1317 104.099 51.4155 104.465 51.6482 104.703C51.8806 104.941 52.0501 105.065 52.0355 105.087Z" fill="white"/>
<path d="M55.8247 105.318C55.8178 105.326 55.7532 105.281 55.6417 105.19C55.528 105.102 55.3791 104.955 55.2122 104.76C55.043 104.565 54.8692 104.31 54.705 104.011C54.5474 103.708 54.4039 103.359 54.3031 102.978C54.2074 102.595 54.1652 102.22 54.1575 101.879C54.1572 101.537 54.1868 101.23 54.2415 100.978C54.2935 100.726 54.3534 100.526 54.4105 100.394C54.4646 100.261 54.4993 100.19 54.5092 100.194C54.5364 100.204 54.4242 100.5 54.3498 100.997C54.31 101.245 54.2929 101.545 54.3007 101.876C54.316 102.206 54.3611 102.569 54.4538 102.94C54.5513 103.309 54.6862 103.648 54.8321 103.945C54.9843 104.239 55.1437 104.493 55.298 104.691C55.6031 105.091 55.8438 105.296 55.8247 105.318Z" fill="white"/>
<path opacity="0.3" d="M27.2094 84.1985C28.4181 84.5966 29.7294 84.5912 30.9439 84.9722C32.1583 85.3532 33.3551 86.3239 33.3551 87.5966C33.3551 88.3409 32.9574 89.1532 33.3527 89.7841C34.24 88.5518 34.7445 87.0479 34.7798 85.5296C35.8157 85.9743 36.8519 86.419 37.8878 86.8636C38.5262 87.1376 39.1916 87.4318 39.6234 87.9761C41.0487 89.7734 39.0014 92.7357 40.2969 94.6287C40.8157 93.0782 41.1118 91.4531 41.1731 89.8191C42.9073 91.0781 41.4231 94.4834 43.2231 95.6461C43.183 94.1577 43.0894 92.6709 42.9426 91.1891C44.9845 93.173 47.1576 95.0223 49.4427 96.7206C50.0288 97.1563 50.6604 97.5971 51.3874 97.6679C53.1114 97.8357 54.26 95.9831 54.97 94.4032C55.3004 94.8431 55.6309 95.2827 55.9616 95.7223C56.7047 94.9053 56.1368 93.5877 56.3916 92.5133C56.6055 91.6101 57.3803 90.9666 58.1094 90.3921C60.7132 88.34 63.7288 86.1693 67.0102 86.6427C66.3015 86.3696 66.2201 85.32 66.6562 84.6982C67.0925 84.0765 67.8359 83.7658 68.5189 83.4336C71.9188 81.7783 74.6261 78.8818 76.4302 75.5584C78.2344 72.2351 78.688 67.0455 76.9622 64.2933L76.961 64.293C76.9595 64.293 76.9219 64.2903 76.8564 64.287V64.2667C76.7284 64.2344 76.6004 64.203 76.4736 64.1734C75.8931 64.0388 75.3049 63.9108 74.7651 63.6581C74.3261 63.4527 73.9266 63.1683 73.4819 62.9751C71.4101 62.0753 69.1101 63.3295 67.0338 64.2189C62.7078 66.0718 57.7149 67.0188 53.1542 65.8582C49.1969 64.8513 46.3667 65.2533 41.4461 63.232C41.4461 63.232 38.9144 61.8366 38.6019 62.3387C38.4694 62.5517 38.7021 63.726 38.5289 64.9536C37.9622 68.9659 34.2699 73.1158 31.5566 76.1254C29.7647 78.1129 27.8362 80.0101 26.1561 82.0837C26.134 83.0514 26.2458 83.8812 27.2094 84.1985Z" fill="black"/>
<path d="M10.9325 82.2642C9.5383 79.9496 7.14412 78.9032 4.44641 78.7528C3.69251 78.7106 2.90871 78.7788 2.24333 79.1352C1.57794 79.4917 1.05551 80.1849 1.07076 80.9397C1.08661 81.7307 1.68291 82.4188 2.39225 82.7687C4.5439 83.8297 7.22486 82.2687 9.48806 83.065C9.83256 83.1862 10.1929 83.3632 10.5455 83.2675C10.8975 83.1718 11.061 82.7938 10.9325 82.2642Z" fill="#FFEA7C"/>
<path d="M4.72629 82.5984C4.72928 82.6151 4.45804 82.6881 4.00498 82.6836C3.56179 82.6773 2.8991 82.5661 2.35155 82.1088C2.08181 81.8836 1.87786 81.6031 1.7696 81.3154C1.65985 81.0284 1.64011 80.7467 1.66583 80.5185C1.69334 80.2894 1.76272 80.1136 1.82552 80.0032C1.88832 79.892 1.93946 79.8423 1.94634 79.8471C1.97295 79.8597 1.7998 80.0932 1.77558 80.5277C1.76511 80.7419 1.79502 81.0014 1.90298 81.2625C2.00914 81.5233 2.19993 81.7793 2.45113 81.9892C2.96041 82.415 3.57914 82.5394 4.01036 82.5735C4.44847 82.6061 4.72389 82.5729 4.72629 82.5984Z" fill="white"/>
<path d="M6.1806 82.4879C6.1794 82.5309 6.04154 82.562 5.87288 82.5576C5.70421 82.5531 5.56815 82.5148 5.56934 82.4717C5.57054 82.4287 5.7081 82.3976 5.87706 82.402C6.04603 82.4065 6.18179 82.4448 6.1806 82.4879Z" fill="white"/>
<path d="M3.31239 73.4384C3.0588 73.2766 2.73194 73.2105 2.40209 73.2404C2.03516 73.2021 1.64699 73.3762 1.42211 73.6755C1.14878 74.0394 1.10452 74.5454 1.25106 74.9764C1.39759 75.4073 1.71637 75.7652 2.09317 76.0206C2.5241 76.3131 3.10067 76.4788 3.56419 76.2422C4.00289 76.0182 4.21552 75.4871 4.19907 74.9949C4.17873 74.3741 3.83602 73.7727 3.31239 73.4384Z" fill="#FFEA7C"/>
<path d="M2.29742 75.7804C2.28935 75.7974 2.15837 75.7615 1.98223 75.6341C1.80729 75.5091 1.59377 75.2804 1.46936 74.9679C1.34466 74.6551 1.34257 74.3422 1.38354 74.1311C1.42391 73.9176 1.49418 73.8013 1.51183 73.8081C1.55758 73.815 1.38234 74.3327 1.6141 74.9098C1.84257 75.4888 2.32583 75.7442 2.29742 75.7804Z" fill="white"/>
<path d="M82.1237 55.0458C84.055 51.8397 87.3708 50.3905 91.1077 50.1821C92.1517 50.1237 93.2375 50.2179 94.1592 50.712C95.0809 51.2057 95.8046 52.1659 95.7836 53.2114C95.7615 54.3071 94.9358 55.2602 93.9532 55.7449C90.9729 57.2148 87.2593 55.0523 84.1247 56.1552C83.6474 56.3233 83.1483 56.5685 82.6602 56.4357C82.1719 56.303 81.9455 55.7796 82.1237 55.0458Z" fill="#FFEA7C"/>
<path d="M90.7199 55.509C90.7223 55.4818 91.1029 55.5353 91.7124 55.4961C92.3117 55.4542 93.1771 55.2844 93.8901 54.6887C94.2417 54.395 94.5085 54.0356 94.6559 53.6692C94.8058 53.3029 94.8452 52.939 94.8279 52.6396C94.7878 52.0319 94.5396 51.7114 94.5701 51.6988C94.5764 51.6943 94.6437 51.7655 94.7268 51.9201C94.8102 52.0738 94.9023 52.316 94.9373 52.6306C94.9702 52.9437 94.9406 53.3298 94.789 53.7225C94.6395 54.1157 94.3596 54.4994 93.9894 54.8083C93.2381 55.4354 92.329 55.5921 91.7175 55.6062C91.4059 55.613 91.155 55.5909 90.9833 55.567C90.8117 55.5428 90.7187 55.5185 90.7199 55.509Z" fill="white"/>
<path d="M88.7054 55.3553C88.7043 55.3123 88.893 55.2725 89.1268 55.2662C89.3607 55.2599 89.5509 55.2898 89.5521 55.3329C89.5532 55.376 89.3646 55.4157 89.1307 55.422C88.8971 55.428 88.7066 55.3981 88.7054 55.3553Z" fill="white"/>
<path d="M92.4969 72.8241C92.8312 73.0723 93.0782 73.4628 93.2017 73.9048C93.432 74.3609 93.3982 74.9491 93.1216 75.3878C92.7852 75.921 92.1518 76.2278 91.522 76.2505C90.8919 76.2733 90.2714 76.037 89.7549 75.6755C89.1643 75.2619 88.6655 74.5974 88.7429 73.8803C88.8165 73.2021 89.3991 72.665 90.0444 72.4434C90.8584 72.1641 91.8058 72.3112 92.4969 72.8241Z" fill="#FFEA7C"/>
<path d="M89.9657 75.2926C89.9818 75.2737 90.1218 75.3871 90.3745 75.5139C90.6251 75.6413 91.0007 75.7717 91.4283 75.7782C91.856 75.7848 92.2355 75.6661 92.4899 75.5462C92.7468 75.4269 92.8901 75.318 92.9053 75.3374C92.9176 75.3506 92.7974 75.4927 92.5408 75.644C92.2878 75.795 91.8859 75.9409 91.4259 75.934C90.966 75.9272 90.5689 75.7687 90.3207 75.6102C90.0689 75.4508 89.9528 75.3054 89.9657 75.2926Z" fill="white"/>
<path d="M62.4886 66.6663C58.2517 66.1947 54.4717 63.9157 50.5563 62.2296C46.6409 60.5436 41.3271 59.1366 37.5125 61.04C35.3889 64.0431 34.0994 66.4887 30.7489 70.0515C30.1544 70.8016 29.2737 70.9002 28.5766 71.5644L28.9256 72.2205C29.6627 72.496 30.3263 73.0408 30.6065 73.7762C30.9807 74.7577 30.5859 75.9311 29.7967 76.6243C29.0075 77.3175 27.8972 77.569 26.8514 77.4697C25.997 77.3887 25.1513 77.0804 24.5048 76.516C24.2593 76.3016 24.0457 76.0483 23.875 75.7699C21.6842 76.9918 18.7939 77.377 16.4009 77.967L16.6282 78.5732C24.4106 83.2132 34.7669 82.7584 41.6982 88.5937C45.0816 91.4421 47.6442 95.7595 51.9666 96.6967C56.0139 91.2083 60.9757 86.3963 66.5853 82.5185C68.7306 81.0356 71.0022 79.6602 72.7131 77.6919C76.2699 73.5994 76.7807 67.7611 77.083 62.3475L76.8558 61.7413C72.4974 64.3903 67.55 67.2297 62.4886 66.6663ZM55.0133 88.0171C54.0896 88.8287 52.7899 89.1227 51.5656 89.0067C50.5656 88.9119 49.5757 88.5509 48.8188 87.8903C48.062 87.2297 47.5599 86.2545 47.5694 85.2503C47.5784 84.3036 48.0542 83.3726 48.8159 82.8107C49.2453 82.494 49.998 82.2401 50.7357 82.1274C51.4559 82.0173 52.1927 82.1265 52.8671 82.4022L53.9936 82.863C54.8566 83.1851 55.6329 83.823 55.961 84.6836C56.3991 85.8323 55.9371 87.2055 55.0133 88.0171ZM59.5621 76.8169C59.0648 77.2538 58.3647 77.4123 57.7054 77.3498C57.1668 77.2987 56.6336 77.1043 56.226 76.7487C55.8184 76.3928 55.548 75.8677 55.5531 75.3267C55.5579 74.8169 55.8142 74.3154 56.2245 74.0127C56.4556 73.842 56.8611 73.7053 57.2583 73.6446C57.6461 73.5854 58.043 73.644 58.406 73.7926L59.0128 74.0408C59.4775 74.2143 59.8959 74.5579 60.0723 75.0214C60.3086 75.6401 60.0597 76.3797 59.5621 76.8169Z" fill="#FFCF54"/>
<g opacity="0.3">
<path d="M62.4886 66.6663C58.2517 66.1947 54.4717 63.9157 50.5563 62.2296C46.6409 60.5436 41.3271 59.1366 37.5125 61.04C35.3889 64.0431 34.0994 66.4887 30.7489 70.0515C30.1544 70.8016 29.2737 70.9002 28.5766 71.5644L28.9256 72.2205C29.6627 72.496 30.3263 73.0408 30.6065 73.7762C30.9807 74.7577 30.5859 75.9311 29.7967 76.6243C29.0075 77.3175 27.8972 77.569 26.8514 77.4697C25.997 77.3887 25.1513 77.0804 24.5048 76.516C24.2593 76.3016 24.0457 76.0483 23.875 75.7699C21.7099 76.9775 18.7652 77.3764 16.4009 77.967L16.6282 78.5732C24.4106 83.2132 34.7669 82.7584 41.6982 88.5937C45.0816 91.4421 47.6442 95.7595 51.9666 96.6967C56.0139 91.2083 60.9757 86.3963 66.5853 82.5185C68.7306 81.0356 71.0022 79.6602 72.7131 77.6919C76.2699 73.5994 76.7807 67.7611 77.083 62.3475L76.8558 61.7413C72.4903 64.3986 67.5617 67.2309 62.4886 66.6663ZM55.0133 88.0171C54.0896 88.8287 52.7899 89.1227 51.5656 89.0067C50.5656 88.9119 49.5757 88.5509 48.8188 87.8903C48.062 87.2297 47.5599 86.2545 47.5694 85.2503C47.5784 84.3036 48.0542 83.3726 48.8159 82.8107C49.2453 82.494 49.998 82.2401 50.7357 82.1274C51.4559 82.0173 52.1927 82.1265 52.8671 82.4022L53.9936 82.863C54.8566 83.1851 55.6329 83.823 55.961 84.6836C56.3991 85.8323 55.9371 87.2055 55.0133 88.0171ZM59.5621 76.8169C59.0648 77.2538 58.3647 77.4123 57.7054 77.3498C57.1668 77.2987 56.6336 77.1043 56.226 76.7487C55.8184 76.3928 55.548 75.8677 55.5531 75.3267C55.5579 74.8169 55.8142 74.3154 56.2245 74.0127C56.4556 73.842 56.8611 73.7053 57.2583 73.6446C57.6461 73.5854 58.043 73.644 58.406 73.7926L59.0128 74.0408C59.4775 74.2143 59.8959 74.5579 60.0723 75.0214C60.3086 75.6401 60.0597 76.3797 59.5621 76.8169Z" fill="black"/>
</g>
<path d="M62.2613 66.0604C58.0244 65.5888 54.2445 63.3097 50.329 61.6237C46.4136 59.9377 41.0998 58.5306 37.2852 60.4341C35.1616 63.4371 33.8721 65.8827 30.5216 69.4456C29.9271 70.1956 29.2737 70.9004 28.5766 71.5646L28.6983 71.6143C29.4355 71.8897 30.0991 72.4346 30.3793 73.1699C30.7534 74.1514 30.3586 75.3246 29.5694 76.018C28.7803 76.7112 27.6699 76.9627 26.6241 76.8635C25.7697 76.7824 24.924 76.4741 24.2775 75.9098C24.032 75.6954 23.8185 75.4421 23.6477 75.1637C21.3669 76.4358 18.894 77.3811 16.4009 77.9672C24.1833 82.6073 34.5396 82.1524 41.4709 87.9877C44.8544 90.8362 47.4169 95.1535 51.7393 96.0907C55.7867 90.6026 60.7485 85.7903 66.358 81.9126C68.5034 80.4296 70.7749 79.0543 72.4858 77.0859C76.0427 72.9935 76.5534 67.1552 76.8558 61.7412C72.4508 64.4464 67.399 66.6321 62.2613 66.0604ZM54.786 87.4112C53.8623 88.2228 52.5623 88.5167 51.3383 88.4007C50.3383 88.3059 49.3485 87.945 48.5916 87.2844C47.8347 86.6238 47.3326 85.6486 47.3421 84.6444C47.3511 83.6976 47.8269 82.7667 48.5886 82.2047C49.018 81.8881 49.7707 81.6342 50.5085 81.5214C51.2286 81.4114 51.9654 81.5205 52.6398 81.7962L53.7663 82.2571C54.6293 82.5792 55.4057 83.217 55.7337 84.0777C56.1718 85.2263 55.7098 86.5996 54.786 87.4112ZM59.3349 76.2106C58.8372 76.6478 58.1372 76.806 57.4781 76.7435C56.9395 76.6924 56.4063 76.498 55.9987 76.1424C55.5911 75.7866 55.3207 75.2615 55.3258 74.7205C55.3306 74.2106 55.5869 73.7091 55.9972 73.4065C56.2284 73.2357 56.6339 73.099 57.031 73.0383C57.4189 72.9791 57.8157 73.0377 58.1787 73.1864L58.7855 73.4346C59.2502 73.608 59.6686 73.9516 59.845 74.4151C60.0813 75.0339 59.8325 75.7737 59.3349 76.2106Z" fill="#FFCF54"/>
<path d="M43.6854 87.7574C43.6812 87.761 43.619 87.7012 43.5047 87.5846C43.3869 87.4716 43.2317 87.2867 43.0026 87.078C42.5573 86.6483 41.8707 86.0672 40.941 85.4679C40.011 84.8707 38.8363 84.261 37.4714 83.7317C36.1108 83.1907 34.5698 82.7152 32.9424 82.2511C29.6908 81.3234 26.7479 80.4843 24.6004 79.8716C23.546 79.5632 22.688 79.3123 22.0771 79.1338C21.7909 79.0468 21.563 78.9774 21.3931 78.9257C21.2373 78.8763 21.156 78.8482 21.1575 78.8428C21.159 78.8374 21.243 78.856 21.4015 78.8955C21.5735 78.9403 21.8037 79.0001 22.0932 79.0755C22.7072 79.2427 23.5699 79.4774 24.63 79.7657C26.7808 80.3671 29.7282 81.191 32.9848 82.1013C34.6137 82.5657 36.1592 83.0471 37.5241 83.5983C38.8931 84.1378 40.0714 84.7622 41.0005 85.3755C41.9296 85.991 42.6103 86.5894 43.0445 87.0346C43.2679 87.2512 43.4168 87.4431 43.5275 87.5634C43.6351 87.6872 43.6895 87.7539 43.6854 87.7574Z" fill="white"/>
<path d="M46.2425 90.7235C46.206 90.7498 45.9749 90.4785 45.6474 90.1942C45.3218 89.9074 45.0227 89.7145 45.0436 89.6747C45.0613 89.6376 45.4079 89.7764 45.7497 90.0769C46.0933 90.376 46.2766 90.7013 46.2425 90.7235Z" fill="white"/>
<path d="M46.8286 82.7751C46.8765 82.7945 46.4004 83.6429 46.3101 84.8071C46.2042 85.9704 46.5314 86.8867 46.4808 86.8977C46.4641 86.904 46.3597 86.6857 46.2664 86.3074C46.1725 85.9303 46.1055 85.3891 46.1549 84.7939C46.206 84.1994 46.3627 83.677 46.5185 83.3208C46.6737 82.9638 46.8134 82.7661 46.8286 82.7751Z" fill="white"/>
<path d="M54.109 74.692C54.15 74.7138 53.9607 75.0846 53.9227 75.5816C53.8772 76.078 54.0019 76.4752 53.9577 76.4898C53.9233 76.5099 53.7196 76.1062 53.7675 75.5685C53.8103 75.0305 54.0785 74.6662 54.109 74.692Z" fill="white"/>
<path d="M70.8545 56.8582C71.1293 55.4156 69.7376 49.7424 68.0276 48.911C64.0237 46.9642 56.2966 51.0941 48.7731 52.1276C39.936 53.3417 31.9669 56.7616 28.1358 59.0637C26.4818 60.0577 21.4216 60.3017 20.3965 61.4534C20.3965 61.4534 20.4055 64.3978 21.4778 67.3144C21.4778 67.3144 22.3983 71.7517 27.0913 72.8734C33.7956 74.476 41.9136 73.8235 47.6218 72.5143C54.1832 71.0092 63.1391 67.0551 66.4011 64.4211C69.6634 61.7877 70.4744 58.8535 70.8545 56.8582Z" fill="#743C35"/>
<path d="M69.1874 50.8776C67.4248 45.5333 58.157 44.8512 47.4209 46.3261C38.5837 47.5402 30.6147 50.9601 26.7836 53.2622C22.9525 55.5643 20.7823 58.2787 20.3969 61.4537C20.3969 61.4537 21.0461 65.9502 25.739 67.0719C32.4434 68.6745 40.8131 68.2777 46.5214 66.9685C53.0828 65.4633 61.7868 61.2537 65.0489 58.6199C68.3109 55.9859 69.6644 52.3232 69.1874 50.8776Z" fill="#A85F4C"/>
<path d="M46.962 48.121C47.1579 48.2101 45.6845 51.872 43.6713 56.2994C41.6575 60.7283 39.8671 64.2451 39.6712 64.156C39.4757 64.0669 40.9488 60.4059 42.9623 55.977C44.9754 51.5496 46.7661 48.0322 46.962 48.121Z" fill="#774037"/>
<path d="M54.9446 46.8452C55.1399 46.9355 53.7125 50.4314 51.7577 54.6524C49.8019 58.875 48.0588 62.2234 47.8638 62.1331C47.6688 62.0428 49.0955 58.5475 51.0513 54.325C53.0062 50.1042 54.7496 46.7549 54.9446 46.8452Z" fill="#774037"/>
<path d="M62.288 47.6882C62.4841 47.7648 61.5771 50.5426 60.0496 53.7978C58.5265 57.0565 56.9736 59.5311 56.7894 59.4294C56.5968 59.3245 57.8333 56.7015 59.3444 53.4676C60.8606 50.237 62.084 47.6075 62.288 47.6882Z" fill="#774037"/>
<path d="M37.3151 50.6259C37.5128 50.6962 36.502 54.0258 34.8142 57.9637C33.1314 61.9054 31.4215 64.9354 31.2343 64.8406C31.0372 64.7425 32.426 61.5753 34.0982 57.6574C35.7762 53.7435 37.1082 50.5512 37.3151 50.6259Z" fill="#774037"/>
<path d="M29.6499 54.2671C29.8419 54.373 29.0444 56.1709 28.0563 58.3725C27.0632 60.5729 26.2465 62.3615 26.0398 62.2879C25.8407 62.2185 26.3383 60.2864 27.3461 58.0528C28.3497 55.818 29.466 54.164 29.6499 54.2671Z" fill="#774037"/>
<path d="M33.635 66.9678C33.6347 66.9732 33.5794 66.9747 33.4747 66.9729C33.3524 66.9687 33.2014 66.9633 33.0172 66.9567C32.6204 66.9388 32.0459 66.9074 31.3371 66.8446C30.629 66.7815 29.7851 66.6846 28.861 66.4947C27.9382 66.306 26.9343 66.0115 25.9477 65.5408C24.9635 65.0605 24.1223 64.4199 23.4737 63.7294C22.8289 63.0347 22.3666 62.3009 22.1043 61.6331C21.8382 60.9671 21.7347 60.3888 21.7177 59.9898C21.695 59.7913 21.7156 59.6352 21.7135 59.5305C21.7171 59.4255 21.7216 59.3708 21.7269 59.3711C21.7431 59.3711 21.7386 59.5921 21.7778 59.9844C21.8128 60.3771 21.9318 60.942 22.2057 61.5903C22.4761 62.2402 22.939 62.9534 23.5778 63.6304C24.2204 64.303 25.0494 64.9286 26.0153 65.3999C26.9869 65.8634 27.977 66.1589 28.8906 66.3536C29.8051 66.5494 30.6434 66.6574 31.3479 66.7343C32.0531 66.8108 32.6254 66.859 33.0211 66.8954C33.2044 66.9137 33.3548 66.9286 33.4765 66.9406C33.5809 66.9538 33.6353 66.9624 33.635 66.9678Z" fill="white"/>
<path d="M38.3248 66.1726C38.3334 66.2147 37.7518 66.3691 37.026 66.5171C36.2999 66.6654 35.7045 66.7512 35.6961 66.7091C35.6875 66.6669 36.2688 66.5126 36.9949 66.3646C37.7207 66.2165 38.3161 66.1304 38.3248 66.1726Z" fill="white"/>
<path d="M26.9085 71.4764C26.9053 71.4865 26.8084 71.4617 26.6349 71.4076C26.4606 71.3564 26.2157 71.2595 25.9217 71.1211C25.3338 70.846 24.564 70.3555 23.8642 69.6456C23.1669 68.9326 22.6908 68.1539 22.4264 67.5609C22.293 67.2646 22.2009 67.0178 22.1531 66.8426C22.1022 66.6683 22.0792 66.5711 22.0894 66.5678C22.1163 66.5588 22.2377 66.9404 22.5257 67.5131C22.8116 68.0854 23.2919 68.8375 23.9752 69.5364C24.6609 70.2323 25.404 70.7263 25.971 71.0227C26.5383 71.3211 26.9178 71.4494 26.9085 71.4764Z" fill="white"/>
<path d="M28.0901 27.1727C28.0901 27.1727 22.4988 25.9541 18.7009 27.946C16.2845 29.2134 15.033 32.4021 14.4786 35.735C13.5776 41.1541 16.8698 49.4006 30.9678 55.1076C46.0718 61.2223 53.263 57.1522 55.7508 55.5658C57.9231 54.1803 61.2987 50.2652 61.0959 43.7845C61.0613 42.6756 59.1172 42.7725 58.3965 41.5419C54.4469 34.7978 39.9673 26.5217 28.0901 27.1727Z" fill="#F74545"/>
<path opacity="0.3" d="M28.0901 27.1727C28.0901 27.1727 22.4988 25.9541 18.7009 27.946C16.2845 29.2134 15.033 32.4021 14.4786 35.735C13.5776 41.1541 16.8698 49.4006 30.9678 55.1076C46.0718 61.2223 53.263 57.1522 55.7508 55.5658C57.9231 54.1803 61.2987 50.2652 61.0959 43.7845C61.0613 42.6756 59.1172 42.7725 58.3965 41.5419C54.4469 34.7978 39.9673 26.5217 28.0901 27.1727Z" fill="black"/>
<path d="M29.1032 24.2058C29.1032 24.2058 17.2663 25.0814 15.6909 32.6933C14.5776 38.0729 17.883 46.4337 31.981 52.141C47.085 58.2556 55.9153 52.7726 57.1787 51.7899C58.4422 50.8073 63.7706 46.0222 59.4096 38.5753C55.4601 31.8312 40.9805 23.555 29.1032 24.2058Z" fill="#F74545"/>
<path opacity="0.1" d="M29.1032 24.2058C29.1032 24.2058 17.2663 25.0814 15.6909 32.6933C14.5776 38.0729 17.883 46.4337 31.981 52.141C47.085 58.2556 55.9153 52.7726 57.1787 51.7899C58.4422 50.8073 63.7706 46.0222 59.4096 38.5753C55.4601 31.8312 40.9805 23.555 29.1032 24.2058Z" fill="white"/>
<g opacity="0.2">
<path d="M55.7107 39.1196C54.6455 37.8382 49.3266 38.9109 47.32 38.5424C46.8427 38.4548 46.5281 37.7769 46.928 37.5017C50.1496 35.2855 50.393 32.816 48.7228 31.5944C46.9139 30.2711 44.0394 28.7097 41.496 28.3374C40.017 28.1209 37.7971 27.8527 36.6631 28.8267C35.9071 29.4759 35.818 32.5956 35.9083 33.6246C35.6413 32.7361 34.914 29.8985 34.4334 29.1072C33.6176 27.7633 32.3099 26.6347 30.7549 26.4026C29.1218 26.1592 27.5066 26.9199 26.131 27.8338C23.7936 29.3865 21.7945 31.4463 20.3184 33.8336C19.8907 34.525 19.5908 35.296 19.508 36.1046C19.1823 39.285 22.1423 40.4593 24.6366 40.3448C26.5544 40.2566 29.9094 38.8525 31.8287 38.898C31.9857 38.9016 32.1529 38.9135 32.2782 39.0077C32.504 39.1776 32.4804 39.5457 32.3045 39.767C32.129 39.9883 30.3721 40.8711 30.1089 40.9737C28.9994 41.4049 27.8625 41.8672 27.111 42.8436C26.7593 43.3009 26.5335 43.8553 26.5389 44.4322C26.5529 45.9531 27.9842 46.7468 29.2542 47.338C31.3087 48.2944 33.3718 49.2331 35.4427 50.1536C37.9147 51.2523 40.4643 52.3414 43.1653 52.4876C44.1184 52.5394 45.1983 52.4251 45.628 51.3584C45.7327 51.0982 45.7727 50.8133 45.756 50.5336C45.6992 49.5731 45.1193 48.8066 44.4925 48.1335C44.0894 47.7005 43.683 47.0339 43.4913 46.4741C43.2996 45.9143 43.2556 44.2581 43.8017 44.0309C44.2987 43.8242 45.1998 43.9585 45.8864 44.8706C46.6633 45.9029 47.4283 47.2818 48.1238 48.3703C48.5141 48.981 48.8607 49.658 49.4639 50.06C50.5309 50.7705 51.9866 50.3593 53.0865 49.7011C54.8581 48.6413 56.2855 46.952 56.8447 44.9648C57.4048 42.9773 57.0304 40.7072 55.7107 39.1196Z" fill="white"/>
</g>
<path d="M31.2534 43.8431C31.0219 43.7785 30.7722 43.7594 30.5429 43.8308C30.3135 43.9023 30.1084 44.0737 30.0345 44.3024C29.9606 44.5309 30.042 44.8111 30.2477 44.9352C30.4499 45.0572 30.7085 45.0118 30.9346 44.9442C31.1751 44.8724 31.4089 44.7797 31.6335 44.6676C31.7352 44.6167 31.8168 44.5815 31.9218 44.4926C32.0546 44.3748 32.0713 44.2133 31.9161 44.1233C31.7011 44.016 31.4849 43.9077 31.2534 43.8431Z" fill="white"/>
<path d="M50.1018 47.1699C50.0073 47.3906 49.9549 47.6358 49.9956 47.8726C50.0363 48.1095 50.1789 48.3356 50.3957 48.4387C50.6126 48.5422 50.9011 48.4985 51.0513 48.3113C51.199 48.1271 51.1882 47.8649 51.1511 47.6316C51.1117 47.384 51.051 47.1397 50.9693 46.9022C50.9325 46.7949 50.9083 46.709 50.8341 46.5933C50.7349 46.4462 50.5773 46.4082 50.4672 46.55C50.3323 46.7488 50.1966 46.9492 50.1018 47.1699Z" fill="white"/>
<path d="M32.6868 46.4604C32.5223 46.6177 32.3835 46.8115 32.3243 47.0313C32.2651 47.2508 32.2947 47.4981 32.4332 47.6653C32.5719 47.8324 32.827 47.8979 33.0244 47.7894C33.2185 47.6826 33.3121 47.4514 33.3728 47.2361C33.4371 47.0074 33.4822 46.7738 33.5079 46.539C33.5196 46.4329 33.5331 46.3497 33.5169 46.2229C33.4924 46.06 33.3773 45.9706 33.231 46.054C33.0417 46.1781 32.8512 46.3031 32.6868 46.4604Z" fill="white"/>
<path d="M39.2897 48.9415C39.3001 49.1688 39.3549 49.4009 39.4817 49.5899C39.6082 49.7789 39.8139 49.9188 40.031 49.9242C40.2481 49.9296 40.4652 49.7804 40.5134 49.5603C40.5606 49.344 40.4479 49.1212 40.3253 48.934C40.1952 48.7352 40.049 48.5477 39.8887 48.3742C39.816 48.2956 39.7625 48.231 39.6563 48.1598C39.5172 48.071 39.3743 48.0994 39.3411 48.2645C39.3103 48.4885 39.2792 48.7139 39.2897 48.9415Z" fill="white"/>
<path d="M41.6621 48.0652C41.8361 48.2117 42.0436 48.3289 42.2685 48.3642C42.4931 48.3995 42.7356 48.3436 42.887 48.1878C43.0383 48.032 43.076 47.7712 42.9471 47.5867C42.8203 47.4052 42.5801 47.337 42.3594 47.2999C42.125 47.2604 41.8881 47.2407 41.6519 47.2404C41.5448 47.2404 41.4611 47.2356 41.3367 47.2652C41.1773 47.3071 41.1007 47.4312 41.1997 47.5679C41.3433 47.7425 41.4877 47.9183 41.6621 48.0652Z" fill="white"/>
<path d="M52.585 45.9457C52.5954 46.1732 52.6502 46.405 52.777 46.594C52.9035 46.783 53.1092 46.923 53.3263 46.9283C53.5434 46.9337 53.7605 46.7845 53.8087 46.5644C53.8559 46.3482 53.7432 46.1254 53.6206 45.9382C53.4905 45.7393 53.3442 45.5518 53.184 45.3784C53.1113 45.2997 53.0578 45.2351 52.9516 45.164C52.8125 45.0751 52.6696 45.1036 52.6364 45.2686C52.6053 45.4929 52.5745 45.7184 52.585 45.9457Z" fill="white"/>
<path d="M54.1392 44.1345C54.3133 44.281 54.5208 44.3983 54.7457 44.4336C54.9703 44.4688 55.2128 44.4129 55.3641 44.2571C55.5154 44.1013 55.5531 43.8405 55.4242 43.656C55.2974 43.4745 55.0573 43.4063 54.8366 43.3692C54.6021 43.3298 54.3653 43.31 54.129 43.3097C54.022 43.3097 53.9383 43.305 53.8138 43.3346C53.6545 43.3764 53.5779 43.5005 53.6766 43.6372C53.8204 43.8118 53.9652 43.988 54.1392 44.1345Z" fill="white"/>
<path d="M54.8566 41.7074C55.056 41.7648 55.2722 41.7851 55.4726 41.7307C55.6727 41.6766 55.8536 41.5399 55.9218 41.3539C55.9896 41.1679 55.9242 40.9367 55.748 40.8312C55.5749 40.7274 55.3497 40.7597 55.1526 40.8108C54.943 40.8653 54.7384 40.9367 54.542 41.0243C54.4528 41.0641 54.3814 41.0913 54.289 41.1625C54.1717 41.2567 54.1544 41.3886 54.2875 41.4651C54.4714 41.5575 54.6571 41.6503 54.8566 41.7074Z" fill="white"/>
<path d="M47.9911 33.8311C48.175 33.785 48.355 33.7019 48.4884 33.5676C48.6218 33.433 48.7019 33.2422 48.6705 33.0643C48.6391 32.8864 48.4815 32.7339 48.294 32.7309C48.1098 32.7282 47.9468 32.8568 47.8144 32.9878C47.6735 33.1268 47.5446 33.2769 47.4298 33.4363C47.3777 33.5084 47.3338 33.5628 47.2931 33.6612C47.2438 33.7892 47.2904 33.9013 47.4304 33.901C47.6182 33.8891 47.8072 33.8771 47.9911 33.8311Z" fill="white"/>
<path d="M30.7991 28.5293C30.8104 28.34 30.7856 28.1432 30.6974 27.9757C30.6092 27.8082 30.4513 27.6743 30.2721 27.6507C30.093 27.627 29.9001 27.7314 29.8409 27.9093C29.7829 28.0843 29.8565 28.2784 29.9414 28.444C30.0317 28.6202 30.1361 28.7882 30.2533 28.9458C30.3062 29.0173 30.3451 29.0756 30.4267 29.1438C30.5341 29.2296 30.6549 29.2186 30.6968 29.0849C30.7419 28.9025 30.7877 28.7186 30.7991 28.5293Z" fill="white"/>
<path d="M24.1298 31.6255C24.0413 31.458 23.9178 31.3025 23.7557 31.205C23.5933 31.1076 23.3888 31.075 23.2234 31.1476C23.058 31.2206 22.9474 31.4099 22.9892 31.5926C23.0305 31.7723 23.1941 31.9 23.3526 31.9975C23.5209 32.1013 23.6977 32.1907 23.8795 32.2646C23.962 32.2981 24.0251 32.328 24.1304 32.3438C24.2665 32.3615 24.3643 32.2894 24.3308 32.1533C24.2748 31.9739 24.2183 31.793 24.1298 31.6255Z" fill="white"/>
<path d="M27.3503 29.254C27.286 29.0495 27.1798 28.8515 27.0192 28.7101C26.8583 28.5686 26.6374 28.4906 26.4382 28.5381C26.2393 28.5857 26.0775 28.7738 26.0868 28.9858C26.0961 29.1942 26.2525 29.3698 26.4092 29.5106C26.5757 29.6602 26.754 29.7959 26.9418 29.9152C27.0267 29.9694 27.0913 30.0154 27.2049 30.0546C27.353 30.1018 27.4765 30.0417 27.4666 29.8832C27.4409 29.6715 27.4149 29.4586 27.3503 29.254Z" fill="white"/>
<path d="M21.6713 35.1947C21.4641 35.1391 21.2404 35.1221 21.0343 35.1819C20.8286 35.2417 20.6441 35.3861 20.5771 35.5796C20.5104 35.7731 20.5822 36.0105 20.7661 36.1164C20.9467 36.2205 21.1788 36.1831 21.3818 36.1263C21.5974 36.0661 21.8077 35.9884 22.0089 35.8942C22.1001 35.8514 22.1737 35.8218 22.2679 35.7471C22.3872 35.6478 22.4028 35.5111 22.264 35.4343C22.072 35.3428 21.8782 35.2503 21.6713 35.1947Z" fill="white"/>
<path d="M23.4814 38.0246C23.272 38.0719 23.066 38.1613 22.9117 38.3099C22.7574 38.4585 22.6614 38.6724 22.6925 38.8748C22.7233 39.077 22.8976 39.2537 23.1097 39.2618C23.3181 39.2696 23.5059 39.1284 23.6593 38.9837C23.8223 38.8303 23.9718 38.6634 24.1064 38.4864C24.1674 38.4062 24.2185 38.3458 24.267 38.2355C24.3265 38.0919 24.2762 37.9639 24.1177 37.9603C23.9048 37.9687 23.6904 37.9774 23.4814 38.0246Z" fill="white"/>
<path d="M46.1002 32.1765C46.282 32.0545 46.4456 31.8942 46.5383 31.6959C46.6307 31.4977 46.6436 31.2587 46.5401 31.0775C46.4363 30.8963 46.2055 30.7916 46.0006 30.8619C45.7991 30.9307 45.672 31.1343 45.579 31.3281C45.4803 31.5342 45.3986 31.7477 45.3355 31.966C45.3068 32.0647 45.2802 32.1412 45.2745 32.2638C45.2706 32.4223 45.3651 32.5261 45.5174 32.4711C45.7174 32.3852 45.9184 32.2985 46.1002 32.1765Z" fill="white"/>
<path d="M40.3418 30.0928C40.4151 29.8865 40.4509 29.6601 40.407 29.446C40.363 29.2319 40.2308 29.0321 40.0397 28.9484C39.8484 28.8647 39.6007 28.9185 39.4781 29.097C39.3576 29.2726 39.3768 29.5118 39.4177 29.7226C39.4611 29.9469 39.5233 30.167 39.6025 30.3799C39.6384 30.4762 39.6626 30.5534 39.7311 30.6553C39.8226 30.7848 39.9602 30.8118 40.0499 30.6769C40.1585 30.4885 40.2682 30.2992 40.3418 30.0928Z" fill="white"/>
<path d="M43.7114 30.8718C43.8298 30.6876 43.9159 30.4753 43.9219 30.2567C43.9279 30.0381 43.8444 29.8138 43.6773 29.6885C43.5101 29.5635 43.2565 29.5596 43.0965 29.7055C42.9392 29.8491 42.9036 30.0862 42.8956 30.3012C42.8869 30.5297 42.8971 30.7579 42.9261 30.9833C42.9392 31.0853 42.9452 31.1661 42.9889 31.2809C43.0484 31.428 43.1764 31.4855 43.2942 31.3742C43.4431 31.2154 43.593 31.056 43.7114 30.8718Z" fill="white"/>
<path d="M35.9634 47.4916C35.7989 47.6489 35.6601 47.8427 35.6009 48.0625C35.5417 48.282 35.5713 48.5293 35.7098 48.6965C35.8485 48.8636 36.1036 48.9294 36.301 48.8209C36.4951 48.7141 36.5887 48.4829 36.6494 48.2676C36.7137 48.0388 36.7588 47.8053 36.7846 47.5705C36.7962 47.4641 36.8097 47.3812 36.7935 47.2544C36.769 47.0915 36.6539 47.002 36.5076 47.0858C36.3183 47.2093 36.1281 47.334 35.9634 47.4916Z" fill="white"/>
<g opacity="0.3">
<path d="M53.3111 41.3719C53.1275 41.1527 52.8676 41.0131 52.609 40.8914C50.4143 39.8597 47.9008 39.7661 45.5942 39.0169C45.4411 38.9673 45.2796 38.9081 45.1821 38.7801C44.9943 38.5337 45.1328 38.1823 45.2754 37.9072C45.6744 37.1383 46.0736 36.3692 46.4725 35.6003C46.6612 35.237 46.8553 34.8428 46.7985 34.4376C46.7303 33.952 46.3236 33.5916 45.9255 33.3054C44.2141 32.0748 42.1381 31.3577 40.0319 31.2695C39.2077 31.2351 38.3046 31.326 37.7095 31.8969C37.1237 32.4588 36.9876 33.356 37.0944 34.1607C37.1895 34.8769 37.4102 35.7196 36.9042 36.2352C36.4709 36.6766 35.5136 36.8719 35.3904 35.833C34.8698 34.2238 34.1332 32.6849 33.2065 31.2701C32.8661 30.7507 32.4834 30.2321 31.943 29.9262C31.2857 29.5539 30.4827 29.547 29.7354 29.6561C26.4725 30.1331 23.654 32.8267 23.0293 36.0644C22.979 36.3246 22.9434 36.6027 23.0451 36.8473C23.1737 37.156 23.4907 37.3405 23.8008 37.4655C24.9566 37.9302 26.2551 37.8635 27.4866 37.6742C28.7177 37.4849 29.9414 37.1802 31.1873 37.1919C32.4328 37.2035 33.7459 37.5842 34.5516 38.5346C34.6482 38.6485 34.7382 38.7732 34.7767 38.9171C34.9391 39.522 34.2011 39.9323 33.6365 40.203C33.1448 40.4386 32.6867 40.7439 32.28 41.1067C32.0186 41.3396 31.7615 41.6408 31.7842 41.9901C31.7985 42.2099 31.9238 42.4066 32.065 42.5756C32.6538 43.2814 33.4562 44.2213 34.2675 44.6528C36.1234 45.6403 37.5498 45.7664 39.8719 46.0218C40.1605 46.0535 41.1366 46.0972 41.4183 46.0272C42.0152 45.8786 42.0481 44.7359 42.2012 44.1402C42.3543 43.5442 42.4623 42.8824 42.9231 42.4751C43.4835 41.9802 44.3795 42.0702 45.0146 42.4647C45.6498 42.8588 46.0927 43.4898 46.5494 44.0816C47.006 44.6734 47.5258 45.2652 48.2279 45.5218C49.3242 45.9226 50.5306 45.4025 51.5381 44.8131C52.431 44.2906 53.3584 43.6019 53.5635 42.5879C53.6488 42.168 53.5863 41.7003 53.3111 41.3719Z" fill="white"/>
</g>
<path d="M17.9615 40.0662C17.9529 40.0725 17.8614 39.9553 17.7032 39.737C17.6218 39.629 17.5273 39.4935 17.4331 39.3264C17.3371 39.1604 17.2163 38.9771 17.1167 38.7567C17.0082 38.5405 16.8924 38.3021 16.7947 38.0348C16.6813 37.7731 16.5976 37.4806 16.5019 37.1753C16.3347 36.5581 16.2061 35.8628 16.1625 35.1244C16.1278 34.3855 16.1819 33.6806 16.283 33.0488C16.3458 32.7348 16.3981 32.4351 16.4831 32.163C16.5521 31.8866 16.6421 31.6375 16.7271 31.4112C16.8027 31.1815 16.9035 30.9862 16.9813 30.8113C17.0569 30.6348 17.1368 30.4904 17.2062 30.3744C17.3407 30.1405 17.4191 30.0143 17.4283 30.0197C17.4588 30.0358 17.146 30.5466 16.8305 31.4488C16.7531 31.6749 16.6703 31.9225 16.6078 32.1965C16.5291 32.4662 16.4825 32.7626 16.4244 33.0724C16.3326 33.6959 16.2839 34.3894 16.3177 35.1167C16.361 35.8431 16.4831 36.5276 16.6401 37.1376C16.7307 37.4394 16.8084 37.7291 16.9149 37.989C17.0061 38.2549 17.1146 38.4923 17.2154 38.7088C17.6251 39.5722 17.9903 40.0471 17.9615 40.0662Z" fill="white"/>
<path d="M19.6556 28.1618C19.676 28.2028 19.3434 28.3939 19.0013 28.7091C18.6559 29.0213 18.4352 29.3347 18.3963 29.3108C18.3602 29.2925 18.5312 28.9247 18.8961 28.594C19.2588 28.2611 19.6407 28.1242 19.6556 28.1618Z" fill="white"/>
<path d="M77.6249 22.3242C77.0612 15.6369 72.6673 2.81347 52.3548 0.373535C34.018 -1.82925 27.2177 6.15801 24.1076 12.6007C22.2478 16.4533 24.2966 22.5234 27.5371 25.3162C32.0339 29.1919 38.1981 30.9527 43.7281 32.2747C52.3021 34.3247 58.6473 34.6357 66.587 34.002C72.146 33.5583 75.8503 29.7938 77.0983 27.2044C77.6416 26.0782 77.7298 23.5707 77.6249 22.3242Z" fill="#E49D67"/>
<path opacity="0.3" d="M42.4673 10.1474C42.4673 10.1474 41.4883 10.0532 40.7801 11.0099C40.3821 11.5476 40.6111 11.992 40.9682 12.1938C41.3181 12.3918 41.8716 12.1433 42.136 11.7157C42.7099 10.7871 42.4673 10.1474 42.4673 10.1474Z" fill="black"/>
<path opacity="0.3" d="M32.9286 10.4863C32.9286 10.4863 33.7806 10.9777 34.8216 10.4002C35.4065 10.0757 35.382 9.57632 35.1409 9.24467C34.9044 8.91961 34.2976 8.91662 33.8799 9.19623C32.9728 9.80389 32.9286 10.4863 32.9286 10.4863Z" fill="black"/>
<path opacity="0.3" d="M45.235 5.6444C45.235 5.6444 44.5107 4.98052 43.3687 5.31694C42.7269 5.50594 42.642 5.99817 42.8053 6.37378C42.9653 6.74191 43.5568 6.87678 44.0254 6.69496C45.0431 6.29991 45.235 5.6444 45.235 5.6444Z" fill="black"/>
<path opacity="0.3" d="M51.4822 10.7883C51.4822 10.7883 51.4615 9.8059 50.4295 9.21289C49.8494 8.87946 49.4349 9.15817 49.2761 9.53557C49.1203 9.90549 49.4316 10.4264 49.887 10.6397C50.8757 11.1026 51.4822 10.7883 51.4822 10.7883Z" fill="black"/>
<path opacity="0.3" d="M46.2879 14.8318C46.2879 14.8318 45.4195 15.2914 45.3534 16.4801C45.3163 17.1482 45.7514 17.3931 46.1599 17.3656C46.5604 17.3384 46.886 16.8267 46.8717 16.324C46.8412 15.2322 46.2879 14.8318 46.2879 14.8318Z" fill="black"/>
<path opacity="0.3" d="M55.6829 13.0782C55.6829 13.0782 54.9347 13.7152 55.1273 14.8896C55.2355 15.5499 55.7134 15.6949 56.1063 15.5795C56.4915 15.4664 56.6985 14.8962 56.5759 14.4084C56.3094 13.3498 55.6829 13.0782 55.6829 13.0782Z" fill="black"/>
<path opacity="0.3" d="M65.011 19.6411C65.011 19.6411 64.941 18.6611 63.8803 18.1207C63.2843 17.8172 62.8842 18.1163 62.7448 18.5011C62.6078 18.8785 62.9449 19.383 63.4105 19.5729C64.4213 19.9853 65.011 19.6411 65.011 19.6411Z" fill="black"/>
<path opacity="0.3" d="M68.7249 15.6534C68.7249 15.6534 69.1908 14.7882 68.5846 13.7637C68.244 13.188 67.7461 13.2263 67.4219 13.4766C67.1043 13.7218 67.1184 14.3283 67.41 14.7383C68.0424 15.628 68.7249 15.6534 68.7249 15.6534Z" fill="black"/>
<path opacity="0.3" d="M61.6853 9.26694C61.6853 9.26694 62.1402 10.1381 63.3283 10.2107C63.996 10.2517 64.2437 9.81808 64.2182 9.40929C64.1934 9.00886 63.6832 8.68021 63.1805 8.69157C62.089 8.71609 61.6853 9.26694 61.6853 9.26694Z" fill="black"/>
<path opacity="0.3" d="M51.3279 5.23898C51.3279 5.23898 51.7827 6.11011 52.9709 6.18278C53.6386 6.22375 53.8862 5.79013 53.8608 5.38133C53.836 4.98091 53.3258 4.65225 52.8231 4.66362C51.7316 4.68814 51.3279 5.23898 51.3279 5.23898Z" fill="black"/>
<path d="M42.5801 9.4962C42.5801 9.4962 41.6011 9.402 40.8929 10.3587C40.4949 10.8963 40.7239 11.3407 41.081 11.5426C41.4309 11.7406 41.9844 11.492 42.2488 11.0644C42.8227 10.1356 42.5801 9.4962 42.5801 9.4962Z" fill="#FFF1E7"/>
<path d="M33.0416 9.83556C33.0416 9.83556 33.8936 10.3269 34.9346 9.74943C35.5195 9.42497 35.495 8.92556 35.254 8.59391C35.0174 8.26885 34.4107 8.26586 33.9929 8.54547C33.0859 9.15314 33.0416 9.83556 33.0416 9.83556Z" fill="#FFF1E7"/>
<path d="M45.3481 4.99303C45.3481 4.99303 44.6235 4.32915 43.4817 4.66558C42.84 4.85458 42.755 5.34681 42.9183 5.72241C43.0783 6.09054 43.6698 6.22541 44.1384 6.04359C45.1561 5.64825 45.3481 4.99303 45.3481 4.99303Z" fill="#FFF1E7"/>
<path d="M51.5948 10.1379C51.5948 10.1379 51.5742 9.1555 50.5422 8.56249C49.962 8.22935 49.5476 8.50777 49.3888 8.88516C49.233 9.25509 49.5443 9.77603 49.9997 9.98925C50.9884 10.4519 51.5948 10.1379 51.5948 10.1379Z" fill="#FFF1E7"/>
<path d="M46.401 14.1799C46.401 14.1799 45.5325 14.6396 45.4664 15.8283C45.4294 16.4964 45.8645 16.7413 46.273 16.7138C46.6734 16.6865 46.9991 16.1746 46.9847 15.6719C46.9539 14.5807 46.401 14.1799 46.401 14.1799Z" fill="#FFF1E7"/>
<path d="M55.7956 12.427C55.7956 12.427 55.0474 13.064 55.2399 14.2383C55.3482 14.8986 55.8261 15.0437 56.219 14.9282C56.6042 14.8152 56.8111 14.2449 56.6885 13.7572C56.4224 12.6982 55.7956 12.427 55.7956 12.427Z" fill="#FFF1E7"/>
<path d="M65.124 18.9897C65.124 18.9897 65.0541 18.0098 63.9933 17.4694C63.3973 17.1658 62.9972 17.4649 62.8578 17.8498C62.7209 18.2269 63.0579 18.7317 63.5235 18.9216C64.534 19.3339 65.124 18.9897 65.124 18.9897Z" fill="#FFF1E7"/>
<path d="M68.8377 15.0017C68.8377 15.0017 69.3036 14.1366 68.6974 13.1123C68.3568 12.5367 67.8589 12.575 67.5347 12.8253C67.2171 13.0705 67.2312 13.6769 67.5227 14.0869C68.1552 14.9766 68.8377 15.0017 68.8377 15.0017Z" fill="#FFF1E7"/>
<path d="M61.7983 8.61508C61.7983 8.61508 62.2532 9.48621 63.4413 9.55888C64.1091 9.59985 64.3567 9.16623 64.3313 8.75743C64.3065 8.357 63.7963 8.02835 63.2936 8.03971C62.2021 8.06424 61.7983 8.61508 61.7983 8.61508Z" fill="#FFF1E7"/>
<path d="M51.4406 4.58762C51.4406 4.58762 51.8954 5.45874 53.0835 5.53141C53.7513 5.57238 53.9989 5.13876 53.9735 4.72996C53.9487 4.32954 53.4385 4.00089 52.9358 4.01225C51.8446 4.03677 51.4406 4.58762 51.4406 4.58762Z" fill="#FFF1E7"/>
<path d="M60.314 34.4322C60.314 34.4349 60.2751 34.4361 60.1991 34.4358C60.1157 34.4346 60.0044 34.4328 59.8627 34.4307C59.5672 34.4232 59.1312 34.4163 58.5702 34.3888C57.4482 34.3425 55.8246 34.2492 53.8267 34.0443C51.8285 33.8425 49.4558 33.5255 46.8422 33.053C45.5359 32.8143 44.1693 32.5389 42.7587 32.2258C41.3501 31.9091 39.8872 31.582 38.4213 31.1235C36.9541 30.6723 35.5489 30.1486 34.2137 29.593C33.5474 29.314 32.8931 29.0314 32.2743 28.7075C31.6553 28.3863 31.0668 28.0391 30.5088 27.6758C29.3921 26.95 28.4005 26.1575 27.5311 25.3543C26.66 24.5561 25.9097 23.7284 25.3807 22.8668C24.3092 21.1485 23.8911 19.5372 23.6677 18.4433C23.4491 17.3395 23.4276 16.7157 23.4276 16.7157C23.4303 16.7154 23.4375 16.7537 23.4491 16.8284C23.4611 16.911 23.4767 17.021 23.4967 17.161C23.5407 17.4529 23.6076 17.8832 23.727 18.4307C23.9677 19.5169 24.4007 21.1141 25.4734 22.8073C26.0033 23.6563 26.747 24.4673 27.6185 25.2589C28.4863 26.0529 29.4753 26.837 30.5868 27.555C31.1421 27.9141 31.7274 28.2574 32.3425 28.5747C32.9562 28.8944 33.606 29.1734 34.272 29.4515C35.6039 30.0039 37.0053 30.5245 38.4667 30.9743C39.9255 31.4306 41.3836 31.7578 42.7913 32.0766C44.1995 32.3915 45.5637 32.6693 46.8673 32.9115C49.4759 33.3909 51.8431 33.719 53.8375 33.9346C55.8318 34.1532 57.4524 34.2632 58.5726 34.3281C59.1261 34.3586 59.5592 34.3825 59.863 34.3993C60.0044 34.408 60.1154 34.4148 60.1985 34.4199C60.2754 34.4253 60.3143 34.4295 60.314 34.4322Z" fill="#263238"/>
<path d="M68.1867 30.1077C68.1894 30.1182 68.0294 30.1648 67.7375 30.2405C67.4462 30.3182 67.0204 30.413 66.4911 30.5138C65.4327 30.7166 63.9507 30.9109 62.3041 30.9495C60.6569 30.9854 59.1674 30.858 58.101 30.7034C57.5675 30.6268 57.1377 30.5515 56.8435 30.4869C56.5486 30.4244 56.3868 30.3849 56.3889 30.3745C56.391 30.364 56.5567 30.3831 56.854 30.4271C57.1509 30.4731 57.5818 30.5318 58.115 30.5943C59.1811 30.7205 60.6626 30.8296 62.3005 30.794C63.9378 30.7554 65.4127 30.5796 66.4719 30.4055C67.0018 30.3191 67.4298 30.2411 67.7243 30.1816C68.0195 30.1238 68.184 30.0972 68.1867 30.1077Z" fill="#263238"/>
<g opacity="0.3">
<path d="M38.596 13.5013C39.0057 13.5569 39.3334 13.9684 39.2963 14.3802C39.2592 14.792 38.863 15.138 38.45 15.1194C38.0367 15.1009 37.6734 14.7208 37.6731 14.3072C37.6728 13.8936 38.0361 13.5132 38.4491 13.4944" fill="#931A00"/>
</g>
<g opacity="0.3">
<path d="M39.8997 5.55729C40.3094 5.61322 40.6371 6.02441 40.6 6.43619C40.563 6.84798 40.1667 7.19398 39.7537 7.17544C39.3404 7.1569 38.9771 6.77681 38.9768 6.36323C38.9765 5.94964 39.3398 5.56926 39.7531 5.55042" fill="#931A00"/>
</g>
<g opacity="0.3">
<path d="M69.7303 17.7972C70.405 17.889 70.9442 18.566 70.8832 19.244C70.8219 19.9219 70.1699 20.4913 69.4899 20.4608C68.8099 20.4303 68.2115 19.8047 68.2112 19.1241C68.2109 18.4434 68.8087 17.8172 69.4887 17.7861" fill="#931A00"/>
</g>
<g opacity="0.3">
<path d="M57.6512 7.60365C57.9885 7.6494 58.2583 7.98793 58.2275 8.32705C58.1969 8.66617 57.871 8.95086 57.531 8.93561C57.1909 8.92036 56.8916 8.60755 56.8916 8.26724C56.8913 7.92692 57.1904 7.61382 57.5304 7.59827" fill="#D27A4B"/>
</g>
<g opacity="0.3">
<path d="M40.2834 16.1608C40.1192 16.2099 40.0109 16.4109 40.08 16.5679C40.1491 16.7249 40.3946 16.7721 40.5038 16.6399C40.6132 16.5074 40.4538 16.1405 40.2834 16.1608Z" fill="#931A00"/>
</g>
<path d="M35.8054 3.02712C35.8072 3.0322 35.7614 3.05433 35.6729 3.09201C35.5674 3.13478 35.4388 3.18651 35.2839 3.24931C35.1137 3.31391 34.9068 3.39555 34.672 3.5044C34.4367 3.61116 34.1636 3.72031 33.8756 3.87193C33.5838 4.01517 33.2653 4.17337 32.9351 4.36626C32.5975 4.54539 32.2554 4.76788 31.8909 4.99456C31.1747 5.46765 30.4148 6.02986 29.6704 6.68358C28.9318 7.34447 28.2823 8.03169 27.7266 8.686C27.4581 9.02064 27.1961 9.33404 26.9778 9.64774C26.747 9.95217 26.5514 10.2497 26.3743 10.5222C26.1895 10.7898 26.0481 11.0479 25.9141 11.2686C25.778 11.4884 25.6722 11.684 25.5875 11.8451C25.5068 11.9914 25.4398 12.1128 25.3848 12.2124C25.3369 12.2958 25.3094 12.3383 25.3043 12.3362C25.2996 12.3338 25.3175 12.2865 25.3564 12.1989C25.4045 12.0954 25.4628 11.9695 25.5334 11.8176C25.61 11.6517 25.7084 11.451 25.8378 11.2258C25.9655 10.9997 26.1007 10.7363 26.281 10.4632C26.4533 10.1851 26.6447 9.88249 26.8729 9.57238C27.0882 9.25329 27.3483 8.93451 27.616 8.59479C28.1698 7.93001 28.8217 7.23382 29.5667 6.56755C30.3173 5.90815 31.0864 5.34444 31.8128 4.87434C32.1824 4.64916 32.5296 4.42936 32.8723 4.25381C33.2076 4.06452 33.5311 3.91081 33.8278 3.77325C34.1206 3.62731 34.3984 3.52444 34.6379 3.42485C34.8769 3.32318 35.088 3.24931 35.262 3.19339C35.4214 3.14166 35.5533 3.09859 35.6619 3.06331C35.7549 3.0343 35.8039 3.02204 35.8054 3.02712Z" fill="white"/>
<path d="M38.9631 2.21694C38.9742 2.25851 38.6177 2.38979 38.1671 2.50971C37.7161 2.62992 37.342 2.69362 37.3309 2.65205C37.3199 2.61048 37.6763 2.4795 38.127 2.35928C38.5777 2.23907 38.9521 2.17537 38.9631 2.21694Z" fill="white"/>
<path opacity="0.3" d="M46.8424 33.0528C45.5362 32.8141 44.1696 32.5387 42.7589 32.2256C41.3504 31.9089 39.8875 31.5818 38.4216 31.1233C36.9544 30.6721 35.5492 30.1484 34.214 29.5928C33.5477 29.3138 32.8934 29.0312 32.2746 28.7073C31.6556 28.3861 31.0671 28.039 30.5091 27.6756C29.3924 26.9498 28.4008 26.1573 27.5314 25.3541C27.2452 25.0918 26.974 24.8263 26.7174 24.5577C26.183 24.6633 25.587 24.797 24.9521 24.9689C25.1872 27.2865 26.5912 29.3745 28.3903 30.859C30.213 32.3629 32.4176 33.3228 34.6305 34.1509C37.7535 35.319 40.9602 36.2631 44.2177 36.9739C48.6729 37.9461 53.6251 38.3959 57.5394 36.0851C56.9727 35.4589 56.33 34.8309 55.6288 34.2083C55.0678 34.1635 54.4688 34.1102 53.8261 34.0441C51.8288 33.8423 49.4561 33.525 46.8424 33.0528Z" fill="black"/>
<path opacity="0.3" d="M30.429 73.4734L30.5205 74.0308C36.1058 76.9417 42.6283 77.7533 48.7734 76.3723C54.9186 74.9913 60.5359 71.3764 64.3389 66.3557C64.1953 66.2645 64.0512 66.173 63.9064 66.0818C59.741 68.502 52.906 71.3023 47.6218 72.5143C42.8334 73.6124 36.3519 74.2431 30.429 73.4734Z" fill="black"/>
<path opacity="0.3" d="M71.5268 101.58C70.1825 101.793 69.0186 100.539 67.6616 100.439C67.0704 100.396 66.4827 100.577 65.8903 100.562C65.2976 100.547 64.6292 100.233 64.529 99.6486C64.3783 100.371 63.5159 100.753 62.7871 100.64C62.0583 100.526 61.4423 100.057 60.8603 99.6044C62.0828 101.403 61.6651 104.117 59.9584 105.465C58.2517 106.812 55.5142 106.589 54.0489 104.982C53.8491 105.701 53.0091 106.084 52.2657 106.019C51.5223 105.953 50.856 105.553 50.2199 105.162C49.827 106.129 49.2752 107.23 48.2474 107.41C47.9256 107.466 47.5811 107.423 47.2836 107.557C46.7815 107.784 46.6212 108.398 46.4118 108.908C45.9408 110.055 44.8843 110.981 43.6564 111.155C42.4282 111.33 41.0894 110.667 40.6034 109.526C40.462 110.379 39.6638 111.075 38.7993 111.1C37.9347 111.124 37.0986 110.475 36.9084 109.631C36.051 110.331 34.7454 109.814 33.9063 109.093C33.3016 108.573 32.7866 107.953 32.3757 107.27C32.4003 108.593 32.8099 109.911 33.5731 110.993C34.731 112.634 36.671 113.696 38.6776 113.788C40.0272 115.882 43.0437 116.696 45.2632 115.562C46.1846 115.092 46.98 114.334 47.9908 114.114C48.9983 113.895 50.1804 114.214 50.9873 113.572C51.4942 113.169 51.687 112.5 52.0061 111.936C52.4541 111.144 53.1972 110.523 54.0564 110.222C56.0424 109.527 58.5418 110.476 60.1731 109.147C61.4222 109.876 63.0903 109.812 64.2805 108.991C65.4707 108.17 66.1221 106.633 65.884 105.206C67.321 105.712 69.0713 105.078 69.8518 103.77C71.2842 103.93 72.766 104.086 74.141 103.653C75.5161 103.221 76.7631 102.034 76.7891 100.593C76.8085 99.5146 76.165 98.5616 75.3474 97.8226C74.8881 98.683 74.2014 99.4656 73.5367 100.19C72.9747 100.802 72.3479 101.451 71.5268 101.58Z" fill="black"/>
</svg>
